<svg xmlns="http://www.w3.org/2000/svg" viewBox="0 0 88.355 41.225"><defs><style>.cls-1{fill:#595859}</style></defs><g id="assistencia-24h_desktop" transform="translate(-393.822 -214.891)"><path id="Path_2" data-name="Path 2" class="cls-1" d="M404.224 231.314a7.292 7.292 0 1 1-7.292 7.292 7.3 7.3 0 0 1 7.292-7.292" transform="translate(1.935 10.218)"/><path id="Path_3" data-name="Path 3" class="cls-1" d="M438.315 231.314a7.292 7.292 0 1 1-7.292 7.292 7.3 7.3 0 0 1 7.292-7.292" transform="translate(23.147 10.218)"/><path id="Path_4" data-name="Path 4" class="cls-1" d="M455.808 240.328h-37.173v-23.5l-19.123 1.454s-4.195 10.384-5.691 14.042v13.455a1.841 1.841 0 0 0 1.841 1.843h1.265a9.227 9.227 0 1 1 18.454 0h36.848a9.211 9.211 0 0 1 3.577-7.292m-44.544-9.641l-14.72 1.851 4.258-11.04 10.468-.8z" transform="translate(0 1.205)"/><path id="Path_5" data-name="Path 5" class="cls-1" d="M454.052 231.313H439a9.2 9.2 0 0 1 3.574 7.292h5.975l5.515-1.953z" transform="translate(28.112 10.218)"/><path id="Path_6" data-name="Path 6" class="cls-1" d="M420.2 223.754a7.183 7.183 0 0 0 1.632-1.621 3 3 0 0 0 .518-1.724 2.043 2.043 0 0 0-.225-.994 2.088 2.088 0 0 0-.582-.676 2.345 2.345 0 0 0-.839-.386 3.915 3.915 0 0 0-.954-.115 6.661 6.661 0 0 0-2.615.529c-.842.355-1.632.724-2.375 1.116l-1.591-2.761c.425-.264.905-.53 1.432-.8a15.042 15.042 0 0 1 1.7-.715 14.729 14.729 0 0 1 1.869-.517 9.733 9.733 0 0 1 1.95-.2 8.456 8.456 0 0 1 2.668.384 5.473 5.473 0 0 1 1.937 1.076 4.578 4.578 0 0 1 1.199 1.65 5.261 5.261 0 0 1 .412 2.094 6.041 6.041 0 0 1-.281 1.885 6.346 6.346 0 0 1-.795 1.608 9.563 9.563 0 0 1-1.234 1.445c-.48.459-1.009.92-1.593 1.382l-4.7 3.712a.457.457 0 0 0-.185.347c0 .193.135.294.4.294h8.783v3.264h-11.41a3.142 3.142 0 0 1-2.085-.676 2.408 2.408 0 0 1-.808-1.95 2.967 2.967 0 0 1 .318-1.26 3.954 3.954 0 0 1 1.14-1.34z" transform="translate(11.577 .002)"/><path id="Path_7" data-name="Path 7" class="cls-1" d="M431.021 229.635h-5.679a3.577 3.577 0 0 1-2.561-.822 2.81 2.81 0 0 1-.861-2.125 4.518 4.518 0 0 1 1.432-2.92l8.2-8.731h3.371v11.305h2.868v3.291h-2.868v4.3h-3.9v-4.3zm0-3.291v-6.236l-5.2 5.361a.9.9 0 0 0-.213.477.375.375 0 0 0 .118.279.575.575 0 0 0 .41.118z" transform="translate(17.482 .091)"/><path id="Path_8" data-name="Path 8" class="cls-1" d="M433.321 214.891h3.879v5.918a17.076 17.076 0 0 1 1.656-.53 7.567 7.567 0 0 1 1.9-.214 6.635 6.635 0 0 1 2.479.414 4.088 4.088 0 0 1 1.632 1.126 4.534 4.534 0 0 1 .892 1.658 7.069 7.069 0 0 1 .277 2.005v8.757h-3.9v-8.492a2.06 2.06 0 0 0-.612-1.66 2.23 2.23 0 0 0-1.488-.517 5.475 5.475 0 0 0-1.634.229 9.663 9.663 0 0 0-1.233.464v9.978h-3.849z" transform="translate(24.576)"/><path id="Path_9" data-name="Path 9" class="cls-1" d="M404.224 231.314a7.292 7.292 0 1 1-7.292 7.292 7.3 7.3 0 0 1 7.292-7.292" transform="translate(1.935 10.218)"/><path id="Path_10" data-name="Path 10" class="cls-1" d="M438.315 231.314a7.292 7.292 0 1 1-7.292 7.292 7.3 7.3 0 0 1 7.292-7.292" transform="translate(23.147 10.218)"/><path id="Path_11" data-name="Path 11" class="cls-1" d="M455.808 240.328h-37.173v-23.5l-19.123 1.454s-4.195 10.384-5.691 14.042v13.455a1.841 1.841 0 0 0 1.841 1.843h1.265a9.227 9.227 0 1 1 18.454 0h36.848a9.211 9.211 0 0 1 3.577-7.292m-44.544-9.641l-14.72 1.851 4.258-11.04 10.468-.8z" transform="translate(0 1.205)"/><path id="Path_12" data-name="Path 12" class="cls-1" d="M454.052 231.313H439a9.2 9.2 0 0 1 3.574 7.292h5.975l5.515-1.953z" transform="translate(28.112 10.218)"/><path id="Path_13" data-name="Path 13" class="cls-1" d="M420.2 223.754a7.183 7.183 0 0 0 1.632-1.621 3 3 0 0 0 .518-1.724 2.043 2.043 0 0 0-.225-.994 2.088 2.088 0 0 0-.582-.676 2.345 2.345 0 0 0-.839-.386 3.915 3.915 0 0 0-.954-.115 6.661 6.661 0 0 0-2.615.529c-.842.355-1.632.724-2.375 1.116l-1.591-2.761c.425-.264.905-.53 1.432-.8a15.042 15.042 0 0 1 1.7-.715 14.729 14.729 0 0 1 1.869-.517 9.733 9.733 0 0 1 1.95-.2 8.456 8.456 0 0 1 2.668.384 5.473 5.473 0 0 1 1.937 1.076 4.578 4.578 0 0 1 1.199 1.65 5.261 5.261 0 0 1 .412 2.094 6.041 6.041 0 0 1-.281 1.885 6.346 6.346 0 0 1-.795 1.608 9.563 9.563 0 0 1-1.234 1.445c-.48.459-1.009.92-1.593 1.382l-4.7 3.712a.457.457 0 0 0-.185.347c0 .193.135.294.4.294h8.783v3.264h-11.41a3.142 3.142 0 0 1-2.085-.676 2.408 2.408 0 0 1-.808-1.95 2.967 2.967 0 0 1 .318-1.26 3.954 3.954 0 0 1 1.14-1.34z" transform="translate(11.577 .002)"/><path id="Path_14" data-name="Path 14" class="cls-1" d="M431.021 229.635h-5.679a3.577 3.577 0 0 1-2.561-.822 2.81 2.81 0 0 1-.861-2.125 4.518 4.518 0 0 1 1.432-2.92l8.2-8.731h3.371v11.305h2.868v3.291h-2.868v4.3h-3.9v-4.3zm0-3.291v-6.236l-5.2 5.361a.9.9 0 0 0-.213.477.375.375 0 0 0 .118.279.575.575 0 0 0 .41.118z" transform="translate(17.482 .091)"/><path id="Path_15" data-name="Path 15" class="cls-1" d="M433.321 214.891h3.879v5.918a17.076 17.076 0 0 1 1.656-.53 7.567 7.567 0 0 1 1.9-.214 6.635 6.635 0 0 1 2.479.414 4.088 4.088 0 0 1 1.632 1.126 4.534 4.534 0 0 1 .892 1.658 7.069 7.069 0 0 1 .277 2.005v8.757h-3.9v-8.492a2.06 2.06 0 0 0-.612-1.66 2.23 2.23 0 0 0-1.488-.517 5.475 5.475 0 0 0-1.634.229 9.663 9.663 0 0 0-1.233.464v9.978h-3.849z" transform="translate(24.576)"/></g></svg>