<svg xmlns="http://www.w3.org/2000/svg" viewBox="0 0 40.778 58.066"><defs><style>.cls-1{fill:#595859}</style></defs><g id="preco-fechado_desktop-1" transform="translate(-429.558 -242.419)"><path id="Path_16" data-name="Path 16" class="cls-1" d="M464.276 289.311h-28.658a6.322 6.322 0 0 1-6.06-6.543V262.2a6.324 6.324 0 0 1 6.06-6.545h28.656a6.324 6.324 0 0 1 6.058 6.545v20.569a6.323 6.323 0 0 1-6.06 6.543m-28.66-30.3a3.075 3.075 0 0 0-2.946 3.183v20.569a3.076 3.076 0 0 0 2.946 3.185h28.658a3.075 3.075 0 0 0 2.946-3.185v-20.567a3.074 3.074 0 0 0-2.944-3.185h-28.656z" transform="translate(0 11.174)"/><path id="Path_17" data-name="Path 17" class="cls-1" d="M462.121 269.679a1.624 1.624 0 0 1-1.558-1.68v-8.642c0-7.486-5.638-13.572-12.567-13.572s-12.569 6.09-12.569 13.572V268a1.561 1.561 0 1 1-3.112 0v-8.642c0-9.335 7.035-16.937 15.684-16.937s15.684 7.6 15.684 16.937V268a1.631 1.631 0 0 1-1.563 1.68" transform="translate(1.952)"/><path id="Path_18" data-name="Path 18" class="cls-1" d="M456.1 267.509a1.619 1.619 0 0 1-1.556-1.678v-8.506c0-4.955-3.732-8.98-8.318-8.98s-8.314 4.028-8.314 8.98v8.506a1.56 1.56 0 1 1-3.112 0v-8.506c0-6.805 5.127-12.342 11.426-12.342s11.432 5.536 11.432 12.342v8.506a1.622 1.622 0 0 1-1.558 1.678" transform="translate(3.714 2.165)"/><path id="Path_19" data-name="Path 19" class="cls-1" d="M445.051 277.216h-.968v2.836h-.941v-2.836h-3.314V276.2h5.255a2.938 2.938 0 0 0 0-5.859h-2.915a3.99 3.99 0 0 1 0-7.956h.974v-2.776h.941v2.776h3.228v1.02h-5.143a2.939 2.939 0 0 0 0 5.861h2.915a3.848 3.848 0 0 1 3.682 3.976 3.893 3.893 0 0 1-3.715 3.976" transform="translate(6.321 14.511)"/><path id="Path_20" data-name="Path 20" class="cls-1" d="M444.358 280.359h-1.332v-2.836h-3.312v-1.435h5.45a2.729 2.729 0 0 0 0-5.442h-2.912a4.2 4.2 0 0 1 0-8.376h.774v-2.776h1.332v2.776h3.228v1.43h-5.334a2.728 2.728 0 0 0 0 5.44h2.912a4.05 4.05 0 0 1 3.879 4.188 4.1 4.1 0 0 1-3.908 4.188h-.774v2.838zm-.945-.419h.553v-2.84h1.165a3.7 3.7 0 0 0 3.522-3.772 3.64 3.64 0 0 0-3.489-3.766h-2.912a3.148 3.148 0 0 1 0-6.278h4.948v-.6h-3.226v-2.776h-.553v2.776h-1.165a3.78 3.78 0 0 0 0 7.537h2.912a3.148 3.148 0 0 1 0 6.278H440.1v.6h3.312z" transform="translate(6.24 14.415)"/></g></svg>