<svg xmlns="http://www.w3.org/2000/svg" xmlns:xlink="http://www.w3.org/1999/xlink" width="164.982" height="187.157" viewBox="0 0 164.982 187.157"><path fill-rule="evenodd" clip-rule="evenodd" fill="#FFF" d="M25.166 136.151h114.651v19.878H25.166z"/><path fill="#00A651" d="M25.213 155.877H139.77v31.28H25.213z"/><path fill-rule="evenodd" clip-rule="evenodd" fill="#FFF" d="M29.728 173.963h-1.719l.748-2.323h.971v-11.794h2.073v11.697h4.438v-11.697h2.117v23.545h-2.117v-9.428h-4.438v9.428h-2.073z"/><defs><path id="a" d="M0 0h164.982v187.157H0z"/></defs><clipPath id="b"><use xlink:href="#a" overflow="visible"/></clipPath><path clip-path="url(#b)" fill-rule="evenodd" clip-rule="evenodd" fill="#FFF" d="M50.229 171.668c0 2.318-.097 4.314-.271 5.986-.178 1.671-.625 3.139-1.326 4.34-.696 1.223-1.766 1.844-3.212 1.844-1.1 0-1.996-.374-2.671-1.098-.649-.746-1.147-1.695-1.474-2.895a22.681 22.681 0 0 1-.595-3.741 79.213 79.213 0 0 1 0-8.878c.099-1.297.299-2.545.595-3.713.327-1.174.825-2.119 1.474-2.848.675-.72 1.571-1.096 2.671-1.096 1.446 0 2.516.623 3.212 1.824.701 1.197 1.148 2.639 1.326 4.289.173 1.671.271 3.668.271 5.986m-4.81-9.756h-.054c-.823 0-1.418.503-1.818 1.498-.402.976-.649 2.146-.726 3.47a66.546 66.546 0 0 0-.15 4.788c0 1.817.054 3.393.15 4.761.101 1.35.352 2.521.774 3.521.4.994.999 1.519 1.824 1.519.795 0 1.367-.524 1.77-1.519.398-1 .647-2.198.746-3.567.099-1.373.148-2.941.148-4.714 0-1.823-.049-3.391-.122-4.738-.101-1.35-.348-2.522-.748-3.52-.397-.996-.999-1.499-1.794-1.499m12.441 20.729l-2.02-15.864-2.443 17.086-2.021-.425 3.494-22.222 1.794-1.946 1.373 12.871 1.471-10.949 1.821-1.944 2.971 24.164-1.923.426-1.895-17.134zm17.287-10.973c0 2.318-.099 4.314-.275 5.986-.174 1.671-.599 3.139-1.298 4.34-.722 1.223-1.794 1.844-3.24 1.844-1.098 0-1.971-.374-2.645-1.098-.67-.746-1.171-1.695-1.472-2.895a18.756 18.756 0 0 1-.6-3.741 81.004 81.004 0 0 1 0-8.878c.08-1.297.278-2.545.6-3.713.301-1.174.802-2.119 1.472-2.848.674-.72 1.547-1.096 2.645-1.096 1.446 0 2.518.623 3.24 1.824.699 1.197 1.124 2.639 1.298 4.289.176 1.671.275 3.668.275 5.986m-4.813-9.756h-.047c-.825 0-1.427.503-1.825 1.498-.399.976-.623 2.146-.722 3.47a84.348 84.348 0 0 0-.124 4.788c0 1.817.049 3.393.148 4.761.099 1.35.35 2.521.75 3.521.397.994 1.023 1.519 1.82 1.519.795 0 1.395-.524 1.796-1.519.37-1 .621-2.198.746-3.567.099-1.373.15-2.941.15-4.714 0-1.823-.051-3.391-.15-4.738-.099-1.35-.346-2.522-.72-3.52-.4-.996-.999-1.499-1.822-1.499m13.816 21.479h-6.457v-23.47h2.14v21.096h3.569zm10.826-11.723c0 2.318-.078 4.314-.25 5.986-.174 1.671-.623 3.139-1.323 4.34-.696 1.223-1.771 1.844-3.215 1.844-1.098 0-1.998-.374-2.673-1.098-.672-.746-1.145-1.695-1.47-2.895a22.68 22.68 0 0 1-.6-3.741 77.976 77.976 0 0 1-.124-4.437c0-1.648.049-3.142.124-4.441.102-1.297.301-2.545.6-3.713.325-1.174.798-2.119 1.47-2.848.675-.72 1.575-1.096 2.673-1.096 1.444 0 2.519.623 3.215 1.824.7 1.197 1.149 2.639 1.323 4.289.171 1.671.25 3.668.25 5.986m-4.788-9.756h-.054c-.818 0-1.445.503-1.819 1.498-.398.976-.649 2.146-.725 3.47-.097 1.296-.146 2.914-.146 4.788 0 1.817.049 3.393.146 4.761.105 1.35.351 2.521.752 3.521.396.994 1.021 1.519 1.846 1.519.798 0 1.369-.524 1.769-1.519.402-1 .651-2.198.75-3.567.097-1.373.146-2.941.146-4.714 0-1.823-.05-3.391-.125-4.738-.097-1.35-.346-2.522-.745-3.52-.401-.996-.998-1.499-1.795-1.499m14.24 19.654v.974l-.226.275c-.499.696-1.322 1.048-2.495 1.048-1.072 0-1.942-.352-2.617-1.074-.675-.747-1.173-1.695-1.472-2.866a18.22 18.22 0 0 1-.625-3.767 59.282 59.282 0 0 1-.148-4.39c0-1.719.049-3.219.127-4.514.072-1.275.247-2.521.548-3.69.324-1.196.795-2.146 1.473-2.896.669-.745 1.569-1.12 2.715-1.12.898 0 1.749.349 2.544 1.047l.353.322-.851 2.545-.223-.347c-.45-.799-1.05-1.201-1.823-1.201-.771 0-1.347.305-1.745.95-.423.623-.677 1.422-.822 2.422-.127.974-.198 2.142-.228 3.517.029.699.051 1.668.051 2.991a92.6 92.6 0 0 1-.051 3.363c.029 1.3.101 2.374.251 3.272.152.897.401 1.62.82 2.168.404.573.979.851 1.724.851.074 0 .273-.028.553-.077v-7.331h-1.698l.8-2.37h3.066v9.898zm6.409-15.288l-2.669 17.56-2.195-.426 3.867-22.271 1.869-1.993 3.894 24.265-2.023.426-2.743-17.561zm0 16.511l-2.046-2.965h4.042l-1.996 2.965zM117 159.921h3.912c1.074 0 1.919.369 2.596 1.069.647.727 1.146 1.65 1.446 2.796a16.81 16.81 0 0 1 .598 3.591c.103 1.244.146 2.671.146 4.291s-.043 3.038-.146 4.288a16.707 16.707 0 0 1-.598 3.591c-.326 1.126-.825 2.048-1.474 2.77-.673.701-1.545 1.074-2.617 1.074H117v-23.47zm2.118 21.149h1.57c.823 0 1.446-.324 1.87-1.022.423-.675.672-1.521.799-2.544.123-1.025.172-2.248.172-3.666v-4.841c0-1.346-.049-2.469-.172-3.417-.127-.945-.399-1.721-.799-2.318-.424-.598-1.021-.922-1.794-.922h-1.646v18.73zm18.156-9.402c0 2.318-.077 4.314-.251 5.986-.174 1.671-.623 3.139-1.319 4.34-.727 1.223-1.799 1.844-3.219 1.844-1.098 0-1.996-.374-2.669-1.098-.675-.746-1.149-1.695-1.47-2.895-.324-1.194-.5-2.441-.6-3.741a75.975 75.975 0 0 1-.127-4.437c0-1.648.05-3.142.127-4.441.1-1.297.275-2.545.6-3.713.32-1.174.795-2.119 1.47-2.848.673-.72 1.571-1.096 2.669-1.096 1.42 0 2.492.623 3.219 1.824.696 1.197 1.146 2.639 1.319 4.289.174 1.671.251 3.668.251 5.986m-4.789-9.756h-.05c-.822 0-1.448.503-1.849 1.498-.372.976-.62 2.146-.719 3.47a84.014 84.014 0 0 0-.127 4.788c0 1.817.052 3.393.148 4.761.101 1.35.351 2.521.752 3.521.396.994 1.021 1.519 1.844 1.519.771 0 1.373-.524 1.771-1.519.397-1 .649-2.198.75-3.567.099-1.373.152-2.941.152-4.714 0-1.823-.054-3.391-.152-4.738-.101-1.35-.327-2.522-.727-3.52-.397-.996-.996-1.499-1.793-1.499"/><path clip-path="url(#b)" fill-rule="evenodd" clip-rule="evenodd" fill="#034EA2" d="M24.99 26.96h114.603v109.167H24.99z"/><path clip-path="url(#b)" fill-rule="evenodd" clip-rule="evenodd" fill="#00A651" d="M42.725 69.335c25.737-9.48 43.47-33.769 38.109-43.997-8.855 1.796-16.113 6.664-24.17 9.981 2.969-10.752 2.969-19.706 1.871-28.41-8.578 6.409-21.723 11.773-26.015 30.973C25.241 29.156 16.659 21.247 0 21.999c3.791 10.776 15.314 34.016 31.973 37.36l1.598-3.344C21.773 50.381 13.167 35.813 6.734 26.109c15.838 4.395 22.897 17.188 26.186 18.883 3.767-1.547 6.287-14.015 9.255-16.861 2.967-2.816 4.566-7.131 11.923-13.042.146 13.567-4.192 20.651-6.287 30.952l2.667 1.547c5.113-7.159 15.938-9.706 23.895-14.566-.249 13.793-21.723 25.813-34.893 34.493l3.245 1.82z"/><path clip-path="url(#b)" fill-rule="evenodd" clip-rule="evenodd" fill="#CB5845" d="M126.151 78.587c8.876-9.977 16.188-16.934 31.074-21.448-8.554.298-5.387-14.517-12.046-18.133-8.554-3.041-11.747 3.917-16.484 11.474-3.518 5.436-10.8 9.353-14.618 2.42 1.276-7.657 4.443-14.191 3.818-22.973C116.3 12.396 93.153 1.822 78.86 0l-2.839 3.638c20.924 7.233 30.752 12.697 36.812 26.289-.324 8.782-2.546 15.714-4.463 23.273.645 3.614 4.139 6.655 7.306 6.955 5.39 2.422 8.874-.322 11.423-1.519 6.985-5.165 8.255-15.09 13.965-15.09 4.764 3.32 4.417 8.751 6.658 11.77-10.174 4.216-17.456 11.799-24.439 19.331l2.868 3.94z"/><path clip-path="url(#b)" fill-rule="evenodd" clip-rule="evenodd" fill="#FFF" d="M33.943 125.403c0-3.094-.075-5.191-.25-7.61.649.052 1.423.15 2.396.15.946 0 1.722-.099 2.368-.15-.174 2.419-.247 4.517-.247 7.61v3.716c0 3.065.073 5.187.247 7.606a19.235 19.235 0 0 0-2.368-.15c-.973 0-1.747.072-2.396.15.175-2.42.25-4.541.25-7.606v-3.716zm11.251 0c0-3.094-.077-5.19-.226-7.61.623.052 1.399.15 2.37.15 1.646 0 3.543-.15 5.187-.15 3.468 0 5.862 1.274 5.862 4.244 0 2.99-2.944 4.263-4.717 4.538v.051c1.75.073 5.192 1.296 5.192 4.611 0 3.917-3.292 5.488-6.734 5.488-1.526 0-2.796-.15-4.242-.15-1.048 0-2.295.072-2.918.15.149-2.421.226-4.541.226-7.606v-3.716zM51 119.368c-.845 0-1.042.023-1.416.075-.054 1.345-.127 2.866-.127 3.812 0 .974.051 1.872.051 2.796h1.296c1.646 0 3.294-1.146 3.294-3.497 0-1.74-.825-3.186-3.098-3.186m-.271 8.251c-.5 0-.898.027-1.221.027 0 .774-.051 1.521-.051 2.646 0 1.745.073 3.84.073 4.811.527.026.948.052 1.601.052 1.695 0 3.163-1.347 3.163-3.743 0-2.545-1.244-3.793-3.565-3.793m30.179 9.107c-.922-.078-1.745-.15-2.546-.15-.821 0-1.646.072-2.469.15a95.998 95.998 0 0 0-1.994-5.637c-1.246-.023-2.445-.052-3.693-.052-1.019 0-1.993.028-3.015.052a54.063 54.063 0 0 0-1.971 5.637c-.449-.078-.898-.15-1.347-.15-.473 0-.896.072-1.444.15 1.421-3.045 5.761-12.819 8.228-19.055.371.049.726.122 1.1.122.373 0 .721-.073 1.095-.122 2.472 6.235 5.861 14.567 8.056 19.055m-7.66-7.261c-.842-2.218-1.669-4.386-2.591-6.507a111.27 111.27 0 0 0-2.721 6.507h5.312zm14.692-5.211c-.621 4.167-.872 8.331-1.171 12.472-.449-.1-.922-.15-1.346-.15-.473 0-.899.051-1.377.15 1.227-6.313 2.175-12.622 2.994-18.933.403.077.774.149 1.175.149.371 0 .773-.072 1.171-.149 2.095 4.366 4.567 9.255 6.658 13.122 2.295-4.091 4.667-8.756 6.761-13.122.401.077.822.149 1.222.149.424 0 .823-.072 1.222-.149.75 6.311 1.774 15.069 2.496 18.933a18.795 18.795 0 0 0-4.741 0c-.199-3.818-.698-8.481-1.171-12.721h-.054c-2.168 4.239-4.311 8.455-6.384 12.721-.174-.024-.374-.078-.546-.078-.176 0-.374.054-.55.078-2.069-4.141-4.143-8.305-6.311-12.472h-.048zm41.427 12.472c-.924-.078-1.72-.15-2.542-.15-.8 0-1.647.072-2.445.15a126.075 126.075 0 0 0-2.02-5.637c-1.221-.023-2.443-.052-3.691-.052-1.024 0-1.996.028-3.019.052-.773 1.87-1.396 3.741-1.949 5.637-.47-.078-.894-.15-1.368-.15-.447 0-.898.072-1.446.15 1.42-3.045 5.762-12.819 8.253-19.055.376.049.727.122 1.101.122.373 0 .722-.073 1.096-.122 2.444 6.235 5.835 14.567 8.03 19.055m-7.655-7.261c-.849-2.218-1.646-4.386-2.572-6.507a84.55 84.55 0 0 0-2.716 6.507h5.288z"/><path clip-path="url(#b)" fill-rule="evenodd" clip-rule="evenodd" fill="#0095DA" d="M161.091 80.508c-6.755 5.512-13.192 9.201-22.866 11.35-16.09-1.249-16.439-15.041-28.337-13.791-8.378-.324-24.142 15.933-28.98 13.791-7.407 3.964-19.005-16.887-26.087-15.963-5.811-2.77-18.009 6.433-25.44 16.259l2.895 3.045c5.808-6.436 14.51-14.691 19.003-14.392 8.703-2.145 14.167 15.935 29.304 17.162 15.462-3.37 21.897-15.016 29.633-14.692 7.407-1.869 12.568 13.466 28.009 13.794 12.567-2.471 19.001-8.577 26.758-14.117l-3.892-2.446z"/><path clip-path="url(#b)" fill="#00A651" d="M25.127 144.622c0-2.166-.043-3.653-.172-5.358.471.041 1.049.098 1.752.098.982 0 2.094-.098 3.119-.098 2.007 0 3.054.291 3.718.794.896.677 1.323 1.47 1.323 2.611 0 2.956-2.307 4.135-5.49 4.135h-1.089c0 1.935.022 3.869.172 5.803-.471-.039-1.049-.097-1.753-.097-.703 0-1.281.058-1.752.097.129-1.702.172-3.19.172-5.356v-2.629zm4.102-4.255c-.344 0-.664 0-.898.02-.021 1.817-.043 3.634-.043 5.432 1.431 0 3.204-.349 3.204-2.841 0-1.972-1.047-2.611-2.263-2.611m11.319 6.09h-.194v.793c0 2.166.043 3.654.17 5.356-.468-.039-1.046-.097-1.749-.097-.705 0-1.282.058-1.753.097.129-1.702.172-3.19.172-5.356v-2.628c0-2.166-.043-3.653-.172-5.358.471.041 1.048.098 1.753.098.767 0 1.685-.098 3.14-.098 2.157 0 2.947.178 3.695.659.853.561 1.389 1.411 1.389 2.553 0 1.872-1.2 3.074-3.312 3.556 1.367 2.186 2.989 4.388 4.549 6.575-.64-.039-1.283-.097-1.921-.097-.64 0-1.304.058-1.944.097l-3.823-6.15zm-.129-6.09c-.043 1.758-.065 3.5-.065 5.258.17.02.323.039.471.039 1.878 0 2.903-.945 2.903-2.764.001-2.281-.979-2.533-3.309-2.533m16.875-1.353c4.529 0 8.094 2.243 8.094 6.903 0 3.827-3.395 6.94-8.157 6.94-4.508 0-8.139-2.09-8.139-6.923 0-3.809 3.246-6.92 8.202-6.92m-.063 1.104c-2.929 0-4.637 2.666-4.637 5.992 0 4.117 2.095 5.549 4.487 5.549 2.561 0 4.804-1.934 4.804-6.15 0-3.343-1.9-5.391-4.654-5.391m22.362 10.245c-.234.541-.406 1.103-.471 1.644-1.132.542-2.604.851-4.357.851-4.955 0-7.882-2.803-7.882-6.459 0-5.335 3.995-7.385 8.481-7.385 1.496 0 3.374.406 4.355.947a6.601 6.601 0 0 0-.489 1.973h-.299c-1.068-1.199-2.157-1.721-3.674-1.721-2.284 0-4.869 1.798-4.869 5.897 0 3.982 2.604 5.549 5.06 5.549 1.369 0 2.948-.583 3.868-1.451l.277.155zm9.74-11.349c4.527 0 8.094 2.243 8.094 6.903 0 3.827-3.396 6.94-8.158 6.94-4.508 0-8.138-2.09-8.138-6.923-.001-3.809 3.245-6.92 8.202-6.92m-.064 1.104c-2.927 0-4.635 2.666-4.635 5.992 0 4.117 2.093 5.549 4.486 5.549 2.562 0 4.805-1.934 4.805-6.15 0-3.343-1.903-5.391-4.656-5.391m10.893-.853c.32.059.641.097.961.097.319 0 .64-.038.96-.097 3.077 3.075 6.133 6.131 9.271 9.203 0-3.072 0-8.33-.15-9.203.32.059.641.097.961.097s.643-.038.96-.097c-.341 5.628-.341 8.2-.341 13.342-.299-.058-.576-.097-.875-.097s-.578.039-.834.097a224.572 224.572 0 0 0-9.334-9.396c-.043 1.447-.043 3.054-.043 4.506 0 3.092.064 4.175.129 4.891a6.084 6.084 0 0 0-1.003-.097c-.32 0-.662.039-.984.097.107-.563.431-5.548.431-9.495 0-1.74-.089-2.92-.109-3.848m26.72 0c.299.059.618.097.939.097.319 0 .64-.038.938-.097-1.41 3.036-4.187 8.915-5.852 13.342-.319-.039-.621-.097-.94-.097-.32 0-.641.058-.939.097-1.323-3.307-4.4-10.383-5.789-13.342.663.059 1.305.097 1.924.097.618 0 1.259-.038 1.878-.097.963 2.882 2.501 6.479 3.803 9.706 1.475-3.228 2.925-6.706 4.038-9.706m3.865 5.357c0-2.166-.043-3.653-.172-5.357 1.262.02 2.542.097 3.803.097 2.094 0 3.888-.038 4.463-.097-.04.234-.086.465-.086.812 0 .406.046.58.086.87-1.622-.097-4.186-.231-4.825-.231-.107 1.409-.107 2.803-.107 4.216a179.35 179.35 0 0 0 4.847-.157c-.083.447-.107.621-.107.869 0 .216.046.388.107.794a67.662 67.662 0 0 0-4.847-.174c0 .812-.021 1.644-.021 2.475 0 .812.021 1.646.064 2.418 1.601 0 3.246-.08 4.89-.252-.04.271-.086.467-.086.868 0 .408.046.6.086.834-.769-.02-1.772-.097-3.736-.097-3.48 0-4.059.058-4.529.097.129-1.702.172-3.19.172-5.356v-2.629z"/></svg>