<svg xmlns="http://www.w3.org/2000/svg" viewBox="0 0 20.604 20.605"><defs><style>.cls-1{fill:#fff}</style></defs><g id="telephone" transform="translate(-.006)"><g id="Group_103" data-name="Group 103" transform="translate(.006)"><path id="Path_7" data-name="Path 7" class="cls-1" d="M15.671 57.79a1.444 1.444 0 0 0-2.182 0c-.51.506-1.02 1.012-1.522 1.526a.3.3 0 0 1-.42.077c-.33-.18-.682-.326-1-.523a15.829 15.829 0 0 1-3.816-3.47 9.041 9.041 0 0 1-1.368-2.191.314.314 0 0 1 .077-.4c.51-.493 1.008-1 1.509-1.5a1.449 1.449 0 0 0 0-2.234l-1.2-1.2c-.4-.4-.819-.828-1.235-1.235a1.453 1.453 0 0 0-2.182 0c-.515.506-1.008 1.025-1.531 1.522a2.485 2.485 0 0 0-.78 1.676 7.1 7.1 0 0 0 .549 3.051 18.577 18.577 0 0 0 3.3 5.493 20.4 20.4 0 0 0 6.757 5.287 9.773 9.773 0 0 0 3.743 1.089 2.743 2.743 0 0 0 2.354-.9c.437-.489.93-.935 1.393-1.4a1.459 1.459 0 0 0 .009-2.221Q16.9 59.01 15.671 57.79z" transform="translate(-.006 -44.159)"/><path id="Path_8" data-name="Path 8" class="cls-1" d="M242.5 102.1l1.582-.27a7.1 7.1 0 0 0-6.005-5.83l-.223 1.591a5.489 5.489 0 0 1 4.646 4.509z" transform="translate(-227.656 -91.884)"/><path id="Path_9" data-name="Path 9" class="cls-1" d="M249.666 3.336A11.666 11.666 0 0 0 242.977 0l-.223 1.591a10.18 10.18 0 0 1 8.614 8.348l1.582-.27a11.751 11.751 0 0 0-3.284-6.333z" transform="translate(-232.346)"/></g></g></svg>