<svg xmlns="http://www.w3.org/2000/svg" viewBox="0 0 100 62.073"><defs><style>.cls-1{fill:#595859}</style></defs><g id="desktop-revisao-expressa" transform="translate(-86.8 -678.8)"><path id="Path_21" data-name="Path 21" class="cls-1" d="M125.516 685.492v-2.944h4.12V678.8H113.43v3.748h4.12v2.944c-12.085 1.874-21.15 12.045-21.15 24.091 0 13.384 11.262 24.358 25 24.358s25-10.974 25-24.358c.275-12.045-8.79-22.217-20.876-24.091m-3.846 44.97c-11.811 0-21.425-9.369-21.425-20.879s9.614-20.879 21.425-20.879 21.425 9.369 21.425 20.879-9.614 20.879-21.425 20.879" transform="translate(16.77)"/><path id="Path_22" data-name="Path 22" class="cls-1" d="M89.673 689.677h13.185a1.339 1.339 0 1 0 0-2.677H89.673a1.452 1.452 0 0 0-1.373 1.338 1.742 1.742 0 0 0 1.373 1.338" transform="translate(2.62 13.749)"/><path id="Path_23" data-name="Path 23" class="cls-1" d="M104.929 691.738a1.454 1.454 0 0 0-1.373-1.338H88.173a1.339 1.339 0 1 0 0 2.677h15.382c1.1 0 1.373-.535 1.373-1.338" transform="translate(0 19.451)"/><path id="Path_24" data-name="Path 24" class="cls-1" d="M104.332 695.138a1.454 1.454 0 0 0-1.373-1.338H89.773a1.339 1.339 0 1 0 0 2.677h13.185c.824.268 1.373-.267 1.373-1.338" transform="translate(2.795 25.151)"/><path id="Path_25" data-name="Path 25" class="cls-1" d="M103.186 697.2H92.473a1.339 1.339 0 1 0 0 2.677h10.713a1.452 1.452 0 0 0 1.373-1.338 1.281 1.281 0 0 0-1.373-1.338" transform="translate(7.511 30.852)"/><path id="Path_26" data-name="Path 26" class="cls-1" d="M92.373 686.277h10.713a1.339 1.339 0 1 0 0-2.677H92.373a1.339 1.339 0 1 0 0 2.677" transform="translate(7.337 8.048)"/><path id="Path_27" data-name="Path 27" class="cls-1" d="M106.948 699.212V696.8a.824.824 0 0 0-1.648 0v2.409a.719.719 0 0 0 .824.8c.549.268.824-.268.824-.8" transform="translate(32.316 28.841)"/><path id="Path_28" data-name="Path 28" class="cls-1" d="M106.948 686.212V683.8a.824.824 0 0 0-1.648 0v2.409a.719.719 0 0 0 .824.8c.549.267.824-.268.824-.8" transform="translate(32.316 7.042)"/><path id="Path_29" data-name="Path 29" class="cls-1" d="M99.124 691.506h2.476a.8.8 0 1 0 0-1.606h-2.476a.719.719 0 0 0-.824.8.867.867 0 0 0 .824.8" transform="translate(20.089 18.612)"/><path id="Path_30" data-name="Path 30" class="cls-1" d="M112.473 691.506h2.747a.8.8 0 1 0 0-1.606h-2.747a.8.8 0 1 0 0 1.606" transform="translate(42.448 18.612)"/><path id="Path_31" data-name="Path 31" class="cls-1" d="M109.264 695.8a.967.967 0 0 1-.275-.8v-7.495a1.649 1.649 0 0 0-3.3 0v7.762c0 .268-.275.536-.275.8a2.353 2.353 0 0 0-.275 2.944 2.1 2.1 0 0 0 2.472 1.338 2.9 2.9 0 0 0 2.472-1.338 6.983 6.983 0 0 0-.824-3.212" transform="translate(31.374 11.905)"/><path id="Path_48" data-name="Path 48" class="cls-1" d="M0 0l6.266.075.059 4.858-6.266-.075z" transform="rotate(145.635 -42.687 364.169)"/><path id="Path_32" data-name="Path 32" class="cls-1" d="M110.431 696.432a1.17 1.17 0 0 1 0-1.338c.275-.535.824-.268 1.373 0s.275.8 0 1.338a.788.788 0 0 1-1.373 0" transform="translate(40.92 26.802)"/><path id="Path_33" data-name="Path 33" class="cls-1" d="M100.631 686.532a1.17 1.17 0 0 1 0-1.338c.275-.535.824-.268 1.373 0s.275.8 0 1.338a.788.788 0 0 1-1.373 0" transform="translate(23.801 10.202)"/><path id="Path_34" data-name="Path 34" class="cls-1" d="M100.762 695.126a1.253 1.253 0 0 1 1.373 0c.549.267.275.8 0 1.338s-.824.268-1.373 0a.749.749 0 0 1 0-1.338" transform="translate(23.67 27.038)"/><path id="Path_35" data-name="Path 35" class="cls-1" d="M110.5 685.226a1.253 1.253 0 0 1 1.373 0c.549.268.275.8 0 1.338s-.824.268-1.373 0-.275-1.071 0-1.338" transform="translate(40.849 10.438)"/><path id="Path_36" data-name="Path 36" class="cls-1" d="M100.242 687.266a.969.969 0 0 1 .549 1.338 1.013 1.013 0 0 1-1.373.536.969.969 0 0 1-.549-1.339 1.013 1.013 0 0 1 1.373-.535" transform="translate(20.893 14.019)"/><path id="Path_37" data-name="Path 37" class="cls-1" d="M113.142 692.766a.969.969 0 0 1 .549 1.338 1.013 1.013 0 0 1-1.373.535.969.969 0 0 1-.549-1.338 1.013 1.013 0 0 1 1.373-.535" transform="translate(43.428 23.241)"/><path id="Path_38" data-name="Path 38" class="cls-1" d="M104.591 684.1a.969.969 0 0 1-.549 1.338 1.013 1.013 0 0 1-1.373-.535.969.969 0 0 1 .549-1.338 1.013 1.013 0 0 1 1.373.535" transform="translate(27.531 7.815)"/><path id="Path_39" data-name="Path 39" class="cls-1" d="M109.891 697a.969.969 0 0 1-.549 1.338 1.013 1.013 0 0 1-1.373-.535.969.969 0 0 1 .549-1.338 1.013 1.013 0 0 1 1.373.535" transform="translate(36.79 29.445)"/><path id="Path_40" data-name="Path 40" class="cls-1" d="M104.591 684.1a.969.969 0 0 1-.549 1.338 1.013 1.013 0 0 1-1.373-.535.969.969 0 0 1 .549-1.338 1.013 1.013 0 0 1 1.373.535" transform="translate(27.531 7.815)"/><path id="Path_41" data-name="Path 41" class="cls-1" d="M109.891 697a.969.969 0 0 1-.549 1.338 1.013 1.013 0 0 1-1.373-.535.969.969 0 0 1 .549-1.338 1.013 1.013 0 0 1 1.373.535" transform="translate(36.79 29.445)"/><path id="Path_42" data-name="Path 42" class="cls-1" d="M109.72 684.8a1.013 1.013 0 0 1-1.373.535 1.156 1.156 0 0 1-.275-1.338 1.013 1.013 0 0 1 1.373-.535c.275.535.549 1.071.275 1.338" transform="translate(36.96 7.647)"/><path id="Path_43" data-name="Path 43" class="cls-1" d="M104.491 697.7a1.013 1.013 0 0 1-1.373.536.969.969 0 0 1-.549-1.339 1.013 1.013 0 0 1 1.373-.535c.549.535.824 1.071.549 1.338" transform="translate(27.357 29.278)"/><path id="Path_44" data-name="Path 44" class="cls-1" d="M113.142 689.14a1.013 1.013 0 0 1-1.373-.536.969.969 0 0 1 .549-1.338 1.013 1.013 0 0 1 1.373.535.969.969 0 0 1-.549 1.339" transform="translate(43.428 14.019)"/><path id="Path_45" data-name="Path 45" class="cls-1" d="M100.142 694.44a1.013 1.013 0 0 1-1.373-.535.969.969 0 0 1 .549-1.339 1.013 1.013 0 0 1 1.373.535.969.969 0 0 1-.549 1.338" transform="translate(20.719 22.906)"/><path id="Path_46" data-name="Path 46" class="cls-1" d="M109.141 691.024c0-.268.275-.8.549-.8a3.561 3.561 0 0 0 1.373-3.212 10.778 10.778 0 0 0-1.373-2.409v1.071c0 .535.275 1.338 0 1.606a6.04 6.04 0 0 1-1.373.8h-.549a6.032 6.032 0 0 0-1.373-.8c-.275-.268-.275-.268-.275-.535V684.6c-.549.536-.824 1.071-1.373 1.606a2.979 2.979 0 0 0 1.1 4.015c.275.268.549.268.549.8v4.818h2.747v-4.818" transform="translate(30.673 9.725)"/><path id="Path_47" data-name="Path 47" class="cls-1" d="M141.748 693.48l-3.571 4.015a1.886 1.886 0 0 1-2.747.268l-1.923-1.606c-.824-.8-1.1-1.874-.275-2.677l3.571-4.015a7.985 7.985 0 0 0-9.339 10.975l-14.558 17.667a3.055 3.055 0 0 0 .549 4.551 3.241 3.241 0 0 0 4.67-.535l14.558-17.667a7.735 7.735 0 0 0 7.966-2.677 7.2 7.2 0 0 0 1.1-8.3m-26.37 27.571c-.824 0-1.373-.268-1.373-1.071 0-.536.275-1.338 1.1-1.338.549 0 1.373.267 1.373 1.071a1.234 1.234 0 0 1-1.1 1.338" transform="translate(44.213 17.441)"/></g></svg>