<svg xmlns="http://www.w3.org/2000/svg" viewBox="0 0 2500 2000"><defs><style>.cls-1{fill:#fff;stroke:#707070;opacity:.36}.cls-2{clip-path:url(#clip-path)}.cls-3{opacity:.31}.cls-16,.cls-4,.cls-6{fill:#d4d4d4}.cls-5{opacity:.61}.cls-6{opacity:.62}.cls-7{opacity:.14}.cls-8,.cls-9{fill:#363636}.cls-9{opacity:.63}.cls-10{opacity:.59}.cls-11{fill:#c4c4c4}.cls-12{fill:#bbb}.cls-13,.cls-14{fill:#aaa}.cls-14{opacity:.68}.cls-15{opacity:.53}.cls-16{opacity:.44}.cls-17{opacity:.17}.cls-18{fill:#c1c1c1}</style><clipPath id="clip-path"><path id="Rectangle_325" data-name="Rectangle 325" class="cls-1" transform="translate(-2597 14171)" d="M0 0h2500v2000H0z"/></clipPath></defs><g id="bg_toyolex" data-name="bg toyolex" class="cls-2" transform="translate(2597 -14171)"><g id="Group_210" data-name="Group 210" transform="translate(-319 -10)"><g id="Group_187" data-name="Group 187" class="cls-3" transform="translate(-2054 13707)"><rect id="Rectangle_132" data-name="Rectangle 132" class="cls-4" width="186" height="6" rx="1" transform="translate(-35 522)"/><rect id="Rectangle_133" data-name="Rectangle 133" class="cls-4" width="186" height="6" rx="1" transform="translate(180 595)"/><rect id="Rectangle_134" data-name="Rectangle 134" class="cls-4" width="186" height="6" rx="1" transform="translate(287 474)"/><rect id="Rectangle_135" data-name="Rectangle 135" class="cls-4" width="42" height="6" rx="1" transform="translate(1083 507)"/><rect id="Rectangle_136" data-name="Rectangle 136" class="cls-4" width="186" height="6" rx="1" transform="translate(913 691)"/><rect id="Rectangle_137" data-name="Rectangle 137" class="cls-4" width="97" height="6" rx="1" transform="translate(-4 381)"/><rect id="Rectangle_138" data-name="Rectangle 138" class="cls-4" width="38" height="6" rx="1" transform="translate(-226 639)"/><rect id="Rectangle_139" data-name="Rectangle 139" class="cls-4" width="38" height="6" rx="1" transform="translate(235 329)"/><rect id="Rectangle_140" data-name="Rectangle 140" class="cls-4" width="38" height="6" rx="1" transform="translate(-118 246)"/><rect id="Rectangle_141" data-name="Rectangle 141" class="cls-4" width="186" height="6" rx="1" transform="translate(511 519)"/></g><g id="Group_188" data-name="Group 188" class="cls-3" transform="translate(-2434 14972)"><rect id="Rectangle_142" data-name="Rectangle 142" class="cls-4" width="186" height="6" rx="1" transform="translate(-35 522)"/><rect id="Rectangle_143" data-name="Rectangle 143" class="cls-4" width="186" height="6" rx="1" transform="translate(180 595)"/><rect id="Rectangle_144" data-name="Rectangle 144" class="cls-4" width="186" height="6" rx="1" transform="translate(287 474)"/><rect id="Rectangle_145" data-name="Rectangle 145" class="cls-4" width="42" height="6" rx="1" transform="translate(1083 507)"/><rect id="Rectangle_146" data-name="Rectangle 146" class="cls-4" width="186" height="6" rx="1" transform="translate(913 691)"/><rect id="Rectangle_147" data-name="Rectangle 147" class="cls-4" width="97" height="6" rx="1" transform="translate(-4 381)"/><rect id="Rectangle_148" data-name="Rectangle 148" class="cls-4" width="38" height="6" rx="1" transform="translate(-226 639)"/><rect id="Rectangle_149" data-name="Rectangle 149" class="cls-4" width="38" height="6" rx="1" transform="translate(235 329)"/><rect id="Rectangle_150" data-name="Rectangle 150" class="cls-4" width="38" height="6" rx="1" transform="translate(-118 246)"/><rect id="Rectangle_151" data-name="Rectangle 151" class="cls-4" width="186" height="6" rx="1" transform="translate(511 519)"/></g><g id="Group_189" data-name="Group 189" class="cls-3" transform="translate(-1216 14401)"><rect id="Rectangle_152" data-name="Rectangle 152" class="cls-4" width="186" height="6" rx="1" transform="translate(-256 821)"/><rect id="Rectangle_153" data-name="Rectangle 153" class="cls-4" width="186" height="6" rx="1" transform="translate(180 595)"/><rect id="Rectangle_154" data-name="Rectangle 154" class="cls-4" width="186" height="6" rx="1" transform="translate(161 800)"/><rect id="Rectangle_155" data-name="Rectangle 155" class="cls-4" width="42" height="6" rx="1" transform="translate(1083 507)"/><rect id="Rectangle_156" data-name="Rectangle 156" class="cls-4" width="186" height="6" rx="1" transform="translate(913 691)"/><rect id="Rectangle_157" data-name="Rectangle 157" class="cls-4" width="97" height="6" rx="1" transform="translate(-4 381)"/><rect id="Rectangle_158" data-name="Rectangle 158" class="cls-4" width="38" height="6" rx="1" transform="translate(-137 641)"/><rect id="Rectangle_159" data-name="Rectangle 159" class="cls-4" width="38" height="6" rx="1" transform="translate(235 329)"/><rect id="Rectangle_160" data-name="Rectangle 160" class="cls-4" width="38" height="6" rx="1" transform="translate(-118 246)"/><rect id="Rectangle_161" data-name="Rectangle 161" class="cls-4" width="91" height="6" rx="1" transform="translate(752 504)"/></g><g id="Group_190" data-name="Group 190" class="cls-3" transform="rotate(180 1095.505 8266.001)"><rect id="Rectangle_162" data-name="Rectangle 162" class="cls-4" width="186" height="6" rx="1" transform="translate(-35 522)"/><rect id="Rectangle_163" data-name="Rectangle 163" class="cls-4" width="186" height="6" rx="1" transform="translate(180 595)"/><rect id="Rectangle_164" data-name="Rectangle 164" class="cls-4" width="186" height="6" rx="1" transform="translate(287 474)"/><rect id="Rectangle_165" data-name="Rectangle 165" class="cls-4" width="42" height="6" rx="1" transform="translate(1083 507)"/><rect id="Rectangle_166" data-name="Rectangle 166" class="cls-4" width="186" height="6" rx="1" transform="translate(913 691)"/><rect id="Rectangle_167" data-name="Rectangle 167" class="cls-4" width="97" height="6" rx="1" transform="translate(-4 381)"/><rect id="Rectangle_168" data-name="Rectangle 168" class="cls-4" width="38" height="6" rx="1" transform="translate(-226 639)"/><rect id="Rectangle_169" data-name="Rectangle 169" class="cls-4" width="38" height="6" rx="1" transform="translate(235 329)"/><rect id="Rectangle_170" data-name="Rectangle 170" class="cls-4" width="38" height="6" rx="1" transform="translate(-118 246)"/><rect id="Rectangle_171" data-name="Rectangle 171" class="cls-4" width="186" height="6" rx="1" transform="translate(511 519)"/></g><g id="Group_195" data-name="Group 195" class="cls-5" transform="translate(-2111 14029)"><g id="Group_191" data-name="Group 191" transform="translate(4)"><rect id="Rectangle_172" data-name="Rectangle 172" class="cls-4" width="186" height="6" rx="1" transform="translate(201 570)"/><rect id="Rectangle_173" data-name="Rectangle 173" class="cls-4" width="120" height="6" rx="1" transform="translate(317 416)"/><rect id="Rectangle_174" data-name="Rectangle 174" class="cls-4" width="120" height="6" rx="1" transform="translate(701 378)"/><rect id="Rectangle_175" data-name="Rectangle 175" class="cls-4" width="42" height="6" rx="1" transform="translate(1083 507)"/><rect id="Rectangle_176" data-name="Rectangle 176" class="cls-4" width="186" height="6" rx="1" transform="translate(1940 347)"/><rect id="Rectangle_177" data-name="Rectangle 177" class="cls-6" width="97" height="6" rx="1" transform="translate(-4 381)"/><rect id="Rectangle_178" data-name="Rectangle 178" class="cls-4" width="38" height="6" rx="1" transform="translate(-4 697)"/><rect id="Rectangle_179" data-name="Rectangle 179" class="cls-4" width="38" height="6" rx="1" transform="translate(-148 620)"/><rect id="Rectangle_180" data-name="Rectangle 180" class="cls-4" width="186" height="6" rx="1" transform="translate(1754 15)"/><rect id="Rectangle_181" data-name="Rectangle 181" class="cls-4" width="186" height="6" rx="1" transform="translate(2075 -61)"/></g><g id="Group_192" data-name="Group 192" class="cls-7" transform="translate(74 184)"><rect id="Rectangle_182" data-name="Rectangle 182" class="cls-8" width="186" height="6" rx="1" transform="translate(72 563)"/><rect id="Rectangle_183" data-name="Rectangle 183" class="cls-8" width="186" height="6" rx="1" transform="translate(410 425)"/><rect id="Rectangle_184" data-name="Rectangle 184" class="cls-8" width="42" height="6" rx="1" transform="translate(1083 507)"/><rect id="Rectangle_185" data-name="Rectangle 185" class="cls-8" width="186" height="6" rx="1" transform="translate(913 691)"/><rect id="Rectangle_186" data-name="Rectangle 186" class="cls-8" width="97" height="6" rx="1" transform="translate(-33 317)"/><rect id="Rectangle_187" data-name="Rectangle 187" class="cls-9" width="38" height="6" rx="1" transform="translate(-4 697)"/><rect id="Rectangle_188" data-name="Rectangle 188" class="cls-8" width="186" height="6" rx="1" transform="translate(511 519)"/><rect id="Rectangle_326" data-name="Rectangle 326" class="cls-8" width="94" height="6" rx="1" transform="translate(391 653)"/></g><g id="Group_193" data-name="Group 193" class="cls-10" transform="translate(1289 340)"><rect id="Rectangle_189" data-name="Rectangle 189" class="cls-4" width="186" height="6" rx="1" transform="translate(15 513)"/><rect id="Rectangle_190" data-name="Rectangle 190" class="cls-4" width="186" height="6" rx="1" transform="translate(180 595)"/><rect id="Rectangle_191" data-name="Rectangle 191" class="cls-11" width="186" height="6" rx="1" transform="translate(256 387)"/><rect id="Rectangle_192" data-name="Rectangle 192" class="cls-11" width="186" height="6" rx="1" transform="translate(729 381)"/><rect id="Rectangle_193" data-name="Rectangle 193" class="cls-11" width="186" height="6" rx="1" transform="translate(886 214)"/><rect id="Rectangle_194" data-name="Rectangle 194" class="cls-11" width="57" height="6" rx="1" transform="translate(944 644)"/><rect id="Rectangle_195" data-name="Rectangle 195" class="cls-4" width="97" height="6" rx="1" transform="translate(93 220)"/><rect id="Rectangle_196" data-name="Rectangle 196" class="cls-4" width="38" height="6" rx="1" transform="translate(-4 697)"/><rect id="Rectangle_197" data-name="Rectangle 197" class="cls-12" width="38" height="6" rx="1" transform="translate(-296 697)"/><rect id="Rectangle_198" data-name="Rectangle 198" class="cls-13" width="38" height="6" rx="1" transform="translate(-975 589)"/><rect id="Rectangle_199" data-name="Rectangle 199" class="cls-14" width="99" height="6" rx="1" transform="translate(-1197 650)"/><rect id="Rectangle_200" data-name="Rectangle 200" class="cls-4" width="98" height="6" rx="1" transform="translate(442 284)"/></g><g id="Group_194" data-name="Group 194" class="cls-15" transform="translate(835 145)"><rect id="Rectangle_201" data-name="Rectangle 201" class="cls-4" width="186" height="6" rx="1" transform="translate(-297 841)"/><rect id="Rectangle_202" data-name="Rectangle 202" class="cls-4" width="186" height="6" rx="1" transform="translate(180 595)"/><rect id="Rectangle_203" data-name="Rectangle 203" class="cls-4" width="186" height="6" rx="1" transform="translate(287 474)"/><rect id="Rectangle_204" data-name="Rectangle 204" class="cls-4" width="186" height="6" rx="1" transform="translate(-519 1003)"/><rect id="Rectangle_205" data-name="Rectangle 205" class="cls-16" width="186" height="6" rx="1" transform="translate(-1046 670)"/><rect id="Rectangle_206" data-name="Rectangle 206" class="cls-4" width="186" height="6" rx="1" transform="translate(-1071 997)"/><rect id="Rectangle_207" data-name="Rectangle 207" class="cls-4" width="169" height="6" rx="1" transform="translate(913 691)"/><rect id="Rectangle_208" data-name="Rectangle 208" class="cls-4" width="97" height="6" rx="1" transform="translate(-4 381)"/><rect id="Rectangle_209" data-name="Rectangle 209" class="cls-4" width="38" height="6" rx="1" transform="translate(-4 697)"/><rect id="Rectangle_210" data-name="Rectangle 210" class="cls-4" width="186" height="6" rx="1" transform="translate(511 519)"/></g></g><g id="Group_200" data-name="Group 200" class="cls-5" transform="translate(-2491 15294)"><g id="Group_196" data-name="Group 196" transform="translate(4)"><rect id="Rectangle_211" data-name="Rectangle 211" class="cls-4" width="186" height="6" rx="1" transform="translate(201 570)"/><rect id="Rectangle_212" data-name="Rectangle 212" class="cls-4" width="120" height="6" rx="1" transform="translate(317 416)"/><rect id="Rectangle_213" data-name="Rectangle 213" class="cls-4" width="120" height="6" rx="1" transform="translate(701 378)"/><rect id="Rectangle_214" data-name="Rectangle 214" class="cls-4" width="42" height="6" rx="1" transform="translate(1083 507)"/><rect id="Rectangle_215" data-name="Rectangle 215" class="cls-4" width="186" height="6" rx="1" transform="translate(1940 347)"/><rect id="Rectangle_216" data-name="Rectangle 216" class="cls-6" width="97" height="6" rx="1" transform="translate(-4 381)"/><rect id="Rectangle_217" data-name="Rectangle 217" class="cls-4" width="38" height="6" rx="1" transform="translate(-4 697)"/><rect id="Rectangle_218" data-name="Rectangle 218" class="cls-4" width="38" height="6" rx="1" transform="translate(-148 620)"/><rect id="Rectangle_219" data-name="Rectangle 219" class="cls-4" width="186" height="6" rx="1" transform="translate(1754 15)"/><rect id="Rectangle_220" data-name="Rectangle 220" class="cls-4" width="186" height="6" rx="1" transform="translate(2075 -61)"/></g><g id="Group_197" data-name="Group 197" class="cls-7" transform="translate(74 184)"><rect id="Rectangle_221" data-name="Rectangle 221" class="cls-8" width="186" height="6" rx="1" transform="translate(72 563)"/><rect id="Rectangle_222" data-name="Rectangle 222" class="cls-8" width="186" height="6" rx="1" transform="translate(410 425)"/><rect id="Rectangle_223" data-name="Rectangle 223" class="cls-8" width="42" height="6" rx="1" transform="translate(1083 507)"/><rect id="Rectangle_224" data-name="Rectangle 224" class="cls-8" width="186" height="6" rx="1" transform="translate(913 691)"/><rect id="Rectangle_225" data-name="Rectangle 225" class="cls-8" width="97" height="6" rx="1" transform="translate(-33 317)"/><rect id="Rectangle_226" data-name="Rectangle 226" class="cls-9" width="38" height="6" rx="1" transform="translate(-4 697)"/><rect id="Rectangle_227" data-name="Rectangle 227" class="cls-8" width="186" height="6" rx="1" transform="translate(511 519)"/></g><g id="Group_198" data-name="Group 198" class="cls-10" transform="translate(1289 340)"><rect id="Rectangle_228" data-name="Rectangle 228" class="cls-4" width="186" height="6" rx="1" transform="translate(15 513)"/><rect id="Rectangle_229" data-name="Rectangle 229" class="cls-4" width="186" height="6" rx="1" transform="translate(180 595)"/><rect id="Rectangle_230" data-name="Rectangle 230" class="cls-11" width="186" height="6" rx="1" transform="translate(256 387)"/><rect id="Rectangle_231" data-name="Rectangle 231" class="cls-11" width="186" height="6" rx="1" transform="translate(729 381)"/><rect id="Rectangle_232" data-name="Rectangle 232" class="cls-11" width="186" height="6" rx="1" transform="translate(886 214)"/><rect id="Rectangle_233" data-name="Rectangle 233" class="cls-11" width="57" height="6" rx="1" transform="translate(944 644)"/><rect id="Rectangle_234" data-name="Rectangle 234" class="cls-4" width="97" height="6" rx="1" transform="translate(93 220)"/><rect id="Rectangle_235" data-name="Rectangle 235" class="cls-4" width="38" height="6" rx="1" transform="translate(-4 697)"/><rect id="Rectangle_236" data-name="Rectangle 236" class="cls-12" width="38" height="6" rx="1" transform="translate(-296 697)"/><rect id="Rectangle_237" data-name="Rectangle 237" class="cls-13" width="38" height="6" rx="1" transform="translate(-975 589)"/><rect id="Rectangle_238" data-name="Rectangle 238" class="cls-14" width="99" height="6" rx="1" transform="translate(-1197 650)"/><rect id="Rectangle_239" data-name="Rectangle 239" class="cls-4" width="98" height="6" rx="1" transform="translate(442 284)"/></g><g id="Group_199" data-name="Group 199" class="cls-15" transform="translate(835 145)"><rect id="Rectangle_240" data-name="Rectangle 240" class="cls-4" width="186" height="6" rx="1" transform="translate(-297 841)"/><rect id="Rectangle_241" data-name="Rectangle 241" class="cls-4" width="186" height="6" rx="1" transform="translate(180 595)"/><rect id="Rectangle_242" data-name="Rectangle 242" class="cls-4" width="186" height="6" rx="1" transform="translate(287 474)"/><rect id="Rectangle_243" data-name="Rectangle 243" class="cls-4" width="186" height="6" rx="1" transform="translate(-519 1003)"/><rect id="Rectangle_244" data-name="Rectangle 244" class="cls-16" width="186" height="6" rx="1" transform="translate(-1046 670)"/><rect id="Rectangle_245" data-name="Rectangle 245" class="cls-4" width="186" height="6" rx="1" transform="translate(-1071 997)"/><rect id="Rectangle_246" data-name="Rectangle 246" class="cls-4" width="169" height="6" rx="1" transform="translate(913 691)"/><rect id="Rectangle_247" data-name="Rectangle 247" class="cls-4" width="97" height="6" rx="1" transform="translate(-4 381)"/><rect id="Rectangle_248" data-name="Rectangle 248" class="cls-4" width="38" height="6" rx="1" transform="translate(-4 697)"/><rect id="Rectangle_249" data-name="Rectangle 249" class="cls-4" width="186" height="6" rx="1" transform="translate(511 519)"/></g></g><g id="Group_205" data-name="Group 205" class="cls-5" transform="rotate(180 1124.005 8105.001)"><g id="Group_201" data-name="Group 201" transform="translate(4)"><rect id="Rectangle_250" data-name="Rectangle 250" class="cls-4" width="186" height="6" rx="1" transform="translate(201 570)"/><rect id="Rectangle_251" data-name="Rectangle 251" class="cls-4" width="120" height="6" rx="1" transform="translate(317 416)"/><rect id="Rectangle_252" data-name="Rectangle 252" class="cls-4" width="120" height="6" rx="1" transform="translate(701 378)"/><rect id="Rectangle_253" data-name="Rectangle 253" class="cls-4" width="42" height="6" rx="1" transform="translate(1083 507)"/><rect id="Rectangle_254" data-name="Rectangle 254" class="cls-4" width="186" height="6" rx="1" transform="translate(1940 347)"/><rect id="Rectangle_255" data-name="Rectangle 255" class="cls-6" width="97" height="6" rx="1" transform="translate(-4 381)"/><rect id="Rectangle_256" data-name="Rectangle 256" class="cls-4" width="38" height="6" rx="1" transform="translate(-4 697)"/><rect id="Rectangle_257" data-name="Rectangle 257" class="cls-4" width="38" height="6" rx="1" transform="translate(-148 620)"/><rect id="Rectangle_258" data-name="Rectangle 258" class="cls-4" width="186" height="6" rx="1" transform="translate(1754 15)"/><rect id="Rectangle_259" data-name="Rectangle 259" class="cls-4" width="186" height="6" rx="1" transform="translate(2075 -61)"/></g><g id="Group_202" data-name="Group 202" class="cls-7" transform="translate(74 184)"><rect id="Rectangle_260" data-name="Rectangle 260" class="cls-8" width="186" height="6" rx="1" transform="translate(72 563)"/><rect id="Rectangle_261" data-name="Rectangle 261" class="cls-8" width="186" height="6" rx="1" transform="translate(410 425)"/><rect id="Rectangle_262" data-name="Rectangle 262" class="cls-8" width="42" height="6" rx="1" transform="translate(1083 507)"/><rect id="Rectangle_263" data-name="Rectangle 263" class="cls-8" width="186" height="6" rx="1" transform="translate(913 691)"/><rect id="Rectangle_264" data-name="Rectangle 264" class="cls-8" width="97" height="6" rx="1" transform="translate(-33 317)"/><rect id="Rectangle_265" data-name="Rectangle 265" class="cls-9" width="38" height="6" rx="1" transform="translate(-4 697)"/><rect id="Rectangle_266" data-name="Rectangle 266" class="cls-8" width="186" height="6" rx="1" transform="translate(511 519)"/></g><g id="Group_203" data-name="Group 203" class="cls-10" transform="translate(1289 340)"><rect id="Rectangle_267" data-name="Rectangle 267" class="cls-4" width="186" height="6" rx="1" transform="translate(15 513)"/><rect id="Rectangle_268" data-name="Rectangle 268" class="cls-4" width="186" height="6" rx="1" transform="translate(180 595)"/><rect id="Rectangle_269" data-name="Rectangle 269" class="cls-11" width="186" height="6" rx="1" transform="translate(256 387)"/><rect id="Rectangle_270" data-name="Rectangle 270" class="cls-11" width="186" height="6" rx="1" transform="translate(729 381)"/><rect id="Rectangle_271" data-name="Rectangle 271" class="cls-11" width="186" height="6" rx="1" transform="translate(886 214)"/><rect id="Rectangle_272" data-name="Rectangle 272" class="cls-11" width="57" height="6" rx="1" transform="translate(944 644)"/><rect id="Rectangle_273" data-name="Rectangle 273" class="cls-4" width="97" height="6" rx="1" transform="translate(93 220)"/><rect id="Rectangle_274" data-name="Rectangle 274" class="cls-4" width="38" height="6" rx="1" transform="translate(-4 697)"/><rect id="Rectangle_275" data-name="Rectangle 275" class="cls-12" width="38" height="6" rx="1" transform="translate(-296 697)"/><rect id="Rectangle_276" data-name="Rectangle 276" class="cls-13" width="38" height="6" rx="1" transform="translate(-975 589)"/><rect id="Rectangle_277" data-name="Rectangle 277" class="cls-14" width="99" height="6" rx="1" transform="translate(-1197 650)"/><rect id="Rectangle_278" data-name="Rectangle 278" class="cls-4" width="98" height="6" rx="1" transform="translate(442 284)"/></g><g id="Group_204" data-name="Group 204" class="cls-15" transform="translate(835 145)"><rect id="Rectangle_279" data-name="Rectangle 279" class="cls-4" width="186" height="6" rx="1" transform="translate(-297 841)"/><rect id="Rectangle_280" data-name="Rectangle 280" class="cls-4" width="186" height="6" rx="1" transform="translate(180 595)"/><rect id="Rectangle_281" data-name="Rectangle 281" class="cls-4" width="186" height="6" rx="1" transform="translate(287 474)"/><rect id="Rectangle_282" data-name="Rectangle 282" class="cls-4" width="186" height="6" rx="1" transform="translate(-519 1003)"/><rect id="Rectangle_283" data-name="Rectangle 283" class="cls-16" width="186" height="6" rx="1" transform="translate(-1046 670)"/><rect id="Rectangle_284" data-name="Rectangle 284" class="cls-4" width="186" height="6" rx="1" transform="translate(-1071 997)"/><rect id="Rectangle_285" data-name="Rectangle 285" class="cls-4" width="169" height="6" rx="1" transform="translate(913 691)"/><rect id="Rectangle_286" data-name="Rectangle 286" class="cls-4" width="97" height="6" rx="1" transform="translate(-4 381)"/><rect id="Rectangle_287" data-name="Rectangle 287" class="cls-4" width="38" height="6" rx="1" transform="translate(-4 697)"/><rect id="Rectangle_288" data-name="Rectangle 288" class="cls-4" width="186" height="6" rx="1" transform="translate(511 519)"/></g></g><g id="Group_206" data-name="Group 206" class="cls-17" transform="translate(-762 13677)"><rect id="Rectangle_289" data-name="Rectangle 289" class="cls-4" width="186" height="6" rx="1" transform="translate(15 513)"/><rect id="Rectangle_290" data-name="Rectangle 290" class="cls-4" width="186" height="6" rx="1" transform="translate(745 491)"/><rect id="Rectangle_291" data-name="Rectangle 291" class="cls-4" width="186" height="6" rx="1" transform="translate(26 727)"/><rect id="Rectangle_292" data-name="Rectangle 292" class="cls-4" width="186" height="6" rx="1" transform="translate(-936 327)"/><rect id="Rectangle_293" data-name="Rectangle 293" class="cls-4" width="186" height="6" rx="1" transform="translate(180 595)"/><rect id="Rectangle_294" data-name="Rectangle 294" class="cls-4" width="186" height="6" rx="1" transform="translate(245 806)"/><rect id="Rectangle_295" data-name="Rectangle 295" class="cls-4" width="186" height="6" rx="1" transform="translate(-565 425)"/><rect id="Rectangle_296" data-name="Rectangle 296" class="cls-4" width="97" height="6" rx="1" transform="translate(-4 381)"/><rect id="Rectangle_297" data-name="Rectangle 297" class="cls-4" width="60" height="6" rx="1" transform="translate(511 519)"/></g><g id="Group_207" data-name="Group 207" class="cls-17" transform="translate(-1142 14942)"><rect id="Rectangle_298" data-name="Rectangle 298" class="cls-4" width="186" height="6" rx="1" transform="translate(15 513)"/><rect id="Rectangle_299" data-name="Rectangle 299" class="cls-4" width="186" height="6" rx="1" transform="translate(745 491)"/><rect id="Rectangle_300" data-name="Rectangle 300" class="cls-4" width="186" height="6" rx="1" transform="translate(26 727)"/><rect id="Rectangle_301" data-name="Rectangle 301" class="cls-4" width="186" height="6" rx="1" transform="translate(-936 327)"/><rect id="Rectangle_302" data-name="Rectangle 302" class="cls-4" width="186" height="6" rx="1" transform="translate(180 595)"/><rect id="Rectangle_303" data-name="Rectangle 303" class="cls-4" width="186" height="6" rx="1" transform="translate(245 806)"/><rect id="Rectangle_304" data-name="Rectangle 304" class="cls-18" width="186" height="6" rx="1" transform="translate(-565 425)"/><rect id="Rectangle_305" data-name="Rectangle 305" class="cls-4" width="97" height="6" rx="1" transform="translate(-4 381)"/><rect id="Rectangle_306" data-name="Rectangle 306" class="cls-4" width="60" height="6" rx="1" transform="translate(511 519)"/></g><g id="Group_208" data-name="Group 208" class="cls-17" transform="translate(76 14371)"><rect id="Rectangle_307" data-name="Rectangle 307" class="cls-4" width="186" height="6" rx="1" transform="translate(15 513)"/><rect id="Rectangle_308" data-name="Rectangle 308" class="cls-4" width="186" height="6" rx="1" transform="translate(745 491)"/><rect id="Rectangle_309" data-name="Rectangle 309" class="cls-4" width="186" height="6" rx="1" transform="translate(-16 749)"/><rect id="Rectangle_310" data-name="Rectangle 310" class="cls-4" width="186" height="6" rx="1" transform="translate(-713 769)"/><rect id="Rectangle_311" data-name="Rectangle 311" class="cls-4" width="186" height="6" rx="1" transform="translate(180 595)"/><rect id="Rectangle_312" data-name="Rectangle 312" class="cls-4" width="186" height="6" rx="1" transform="translate(245 806)"/><rect id="Rectangle_313" data-name="Rectangle 313" class="cls-4" width="113" height="6" rx="1" transform="translate(-275 353)"/><rect id="Rectangle_314" data-name="Rectangle 314" class="cls-4" width="97" height="6" rx="1" transform="translate(-4 381)"/><rect id="Rectangle_315" data-name="Rectangle 315" class="cls-4" width="60" height="6" rx="1" transform="translate(511 519)"/></g><g id="Group_209" data-name="Group 209" class="cls-17" transform="rotate(180 449.505 8281.001)"><rect id="Rectangle_316" data-name="Rectangle 316" class="cls-4" width="186" height="6" rx="1" transform="translate(15 513)"/><rect id="Rectangle_317" data-name="Rectangle 317" class="cls-4" width="186" height="6" rx="1" transform="translate(745 491)"/><rect id="Rectangle_318" data-name="Rectangle 318" class="cls-4" width="186" height="6" rx="1" transform="translate(26 727)"/><rect id="Rectangle_319" data-name="Rectangle 319" class="cls-4" width="186" height="6" rx="1" transform="translate(-936 327)"/><rect id="Rectangle_320" data-name="Rectangle 320" class="cls-4" width="186" height="6" rx="1" transform="translate(180 595)"/><rect id="Rectangle_321" data-name="Rectangle 321" class="cls-4" width="186" height="6" rx="1" transform="translate(245 806)"/><rect id="Rectangle_322" data-name="Rectangle 322" class="cls-4" width="186" height="6" rx="1" transform="translate(-565 425)"/><rect id="Rectangle_323" data-name="Rectangle 323" class="cls-4" width="97" height="6" rx="1" transform="translate(-4 381)"/><rect id="Rectangle_324" data-name="Rectangle 324" class="cls-4" width="60" height="6" rx="1" transform="translate(511 519)"/></g></g></g></svg>