<?xml version="1.0" encoding="UTF-8"?><!DOCTYPE svg PUBLIC "-//W3C//DTD SVG 1.1//EN" "http://www.w3.org/Graphics/SVG/1.1/DTD/svg11.dtd"><svg xmlns="http://www.w3.org/2000/svg" xmlns:xlink="http://www.w3.org/1999/xlink"><defs><style>.cls-1{fill:#595859}</style><style>.cls-1{fill:#eb0a1e}</style><style>.cls-1{fill:#595859}</style><path id="ibama-a" d="M0 0h164.982v187.157H0z"/><style>.cls-1{fill:#505050}</style><style>.cls-1{fill:#fff}</style><style>.cls-1{fill:#595859}</style><style>.cls-1{fill:#505050}</style><style>.cls-1{fill:#fff;stroke:#707070;opacity:.36}.cls-2{clip-path:url(#clip-path)}.cls-3{opacity:.31}.cls-16,.cls-4,.cls-6{fill:#d4d4d4}.cls-5{opacity:.61}.cls-6{opacity:.62}.cls-7{opacity:.14}.cls-8,.cls-9{fill:#363636}.cls-9{opacity:.63}.cls-10{opacity:.59}.cls-11{fill:#c4c4c4}.cls-12{fill:#bbb}.cls-13,.cls-14{fill:#aaa}.cls-14{opacity:.68}.cls-15{opacity:.53}.cls-16{opacity:.44}.cls-17{opacity:.17}.cls-18{fill:#c1c1c1}</style><clipPath id="clip-path"><path id="Rectangle_325" data-name="Rectangle 325" class="cls-1" transform="translate(-2597 14171)" d="M0 0h2500v2000H0z"/></clipPath></defs><symbol id="arrow" viewBox="0 0 31.49 31.49"><path d="M21.205 5.007a1.112 1.112 0 0 0-1.587 0 1.12 1.12 0 0 0 0 1.571l8.047 8.047H1.111A1.106 1.106 0 0 0 0 15.737c0 .619.492 1.127 1.111 1.127h26.554l-8.047 8.032c-.429.444-.429 1.159 0 1.587a1.112 1.112 0 0 0 1.587 0l9.952-9.952a1.093 1.093 0 0 0 0-1.571l-9.952-9.953z" fill="#FFF"/></symbol><symbol id="assistencia" viewBox="0 0 88.355 41.225"><g id="assistencia-24h_desktop" transform="translate(-393.822 -214.891)"><path id="Path_2" data-name="Path 2" class="cls-1" d="M404.224 231.314a7.292 7.292 0 1 1-7.292 7.292 7.3 7.3 0 0 1 7.292-7.292" transform="translate(1.935 10.218)"/><path id="Path_3" data-name="Path 3" class="cls-1" d="M438.315 231.314a7.292 7.292 0 1 1-7.292 7.292 7.3 7.3 0 0 1 7.292-7.292" transform="translate(23.147 10.218)"/><path id="Path_4" data-name="Path 4" class="cls-1" d="M455.808 240.328h-37.173v-23.5l-19.123 1.454s-4.195 10.384-5.691 14.042v13.455a1.841 1.841 0 0 0 1.841 1.843h1.265a9.227 9.227 0 1 1 18.454 0h36.848a9.211 9.211 0 0 1 3.577-7.292m-44.544-9.641l-14.72 1.851 4.258-11.04 10.468-.8z" transform="translate(0 1.205)"/><path id="Path_5" data-name="Path 5" class="cls-1" d="M454.052 231.313H439a9.2 9.2 0 0 1 3.574 7.292h5.975l5.515-1.953z" transform="translate(28.112 10.218)"/><path id="Path_6" data-name="Path 6" class="cls-1" d="M420.2 223.754a7.183 7.183 0 0 0 1.632-1.621 3 3 0 0 0 .518-1.724 2.043 2.043 0 0 0-.225-.994 2.088 2.088 0 0 0-.582-.676 2.345 2.345 0 0 0-.839-.386 3.915 3.915 0 0 0-.954-.115 6.661 6.661 0 0 0-2.615.529c-.842.355-1.632.724-2.375 1.116l-1.591-2.761c.425-.264.905-.53 1.432-.8a15.042 15.042 0 0 1 1.7-.715 14.729 14.729 0 0 1 1.869-.517 9.733 9.733 0 0 1 1.95-.2 8.456 8.456 0 0 1 2.668.384 5.473 5.473 0 0 1 1.937 1.076 4.578 4.578 0 0 1 1.199 1.65 5.261 5.261 0 0 1 .412 2.094 6.041 6.041 0 0 1-.281 1.885 6.346 6.346 0 0 1-.795 1.608 9.563 9.563 0 0 1-1.234 1.445c-.48.459-1.009.92-1.593 1.382l-4.7 3.712a.457.457 0 0 0-.185.347c0 .193.135.294.4.294h8.783v3.264h-11.41a3.142 3.142 0 0 1-2.085-.676 2.408 2.408 0 0 1-.808-1.95 2.967 2.967 0 0 1 .318-1.26 3.954 3.954 0 0 1 1.14-1.34z" transform="translate(11.577 .002)"/><path id="Path_7" data-name="Path 7" class="cls-1" d="M431.021 229.635h-5.679a3.577 3.577 0 0 1-2.561-.822 2.81 2.81 0 0 1-.861-2.125 4.518 4.518 0 0 1 1.432-2.92l8.2-8.731h3.371v11.305h2.868v3.291h-2.868v4.3h-3.9v-4.3zm0-3.291v-6.236l-5.2 5.361a.9.9 0 0 0-.213.477.375.375 0 0 0 .118.279.575.575 0 0 0 .41.118z" transform="translate(17.482 .091)"/><path id="Path_8" data-name="Path 8" class="cls-1" d="M433.321 214.891h3.879v5.918a17.076 17.076 0 0 1 1.656-.53 7.567 7.567 0 0 1 1.9-.214 6.635 6.635 0 0 1 2.479.414 4.088 4.088 0 0 1 1.632 1.126 4.534 4.534 0 0 1 .892 1.658 7.069 7.069 0 0 1 .277 2.005v8.757h-3.9v-8.492a2.06 2.06 0 0 0-.612-1.66 2.23 2.23 0 0 0-1.488-.517 5.475 5.475 0 0 0-1.634.229 9.663 9.663 0 0 0-1.233.464v9.978h-3.849z" transform="translate(24.576)"/><path id="Path_9" data-name="Path 9" class="cls-1" d="M404.224 231.314a7.292 7.292 0 1 1-7.292 7.292 7.3 7.3 0 0 1 7.292-7.292" transform="translate(1.935 10.218)"/><path id="Path_10" data-name="Path 10" class="cls-1" d="M438.315 231.314a7.292 7.292 0 1 1-7.292 7.292 7.3 7.3 0 0 1 7.292-7.292" transform="translate(23.147 10.218)"/><path id="Path_11" data-name="Path 11" class="cls-1" d="M455.808 240.328h-37.173v-23.5l-19.123 1.454s-4.195 10.384-5.691 14.042v13.455a1.841 1.841 0 0 0 1.841 1.843h1.265a9.227 9.227 0 1 1 18.454 0h36.848a9.211 9.211 0 0 1 3.577-7.292m-44.544-9.641l-14.72 1.851 4.258-11.04 10.468-.8z" transform="translate(0 1.205)"/><path id="Path_12" data-name="Path 12" class="cls-1" d="M454.052 231.313H439a9.2 9.2 0 0 1 3.574 7.292h5.975l5.515-1.953z" transform="translate(28.112 10.218)"/><path id="Path_13" data-name="Path 13" class="cls-1" d="M420.2 223.754a7.183 7.183 0 0 0 1.632-1.621 3 3 0 0 0 .518-1.724 2.043 2.043 0 0 0-.225-.994 2.088 2.088 0 0 0-.582-.676 2.345 2.345 0 0 0-.839-.386 3.915 3.915 0 0 0-.954-.115 6.661 6.661 0 0 0-2.615.529c-.842.355-1.632.724-2.375 1.116l-1.591-2.761c.425-.264.905-.53 1.432-.8a15.042 15.042 0 0 1 1.7-.715 14.729 14.729 0 0 1 1.869-.517 9.733 9.733 0 0 1 1.95-.2 8.456 8.456 0 0 1 2.668.384 5.473 5.473 0 0 1 1.937 1.076 4.578 4.578 0 0 1 1.199 1.65 5.261 5.261 0 0 1 .412 2.094 6.041 6.041 0 0 1-.281 1.885 6.346 6.346 0 0 1-.795 1.608 9.563 9.563 0 0 1-1.234 1.445c-.48.459-1.009.92-1.593 1.382l-4.7 3.712a.457.457 0 0 0-.185.347c0 .193.135.294.4.294h8.783v3.264h-11.41a3.142 3.142 0 0 1-2.085-.676 2.408 2.408 0 0 1-.808-1.95 2.967 2.967 0 0 1 .318-1.26 3.954 3.954 0 0 1 1.14-1.34z" transform="translate(11.577 .002)"/><path id="Path_14" data-name="Path 14" class="cls-1" d="M431.021 229.635h-5.679a3.577 3.577 0 0 1-2.561-.822 2.81 2.81 0 0 1-.861-2.125 4.518 4.518 0 0 1 1.432-2.92l8.2-8.731h3.371v11.305h2.868v3.291h-2.868v4.3h-3.9v-4.3zm0-3.291v-6.236l-5.2 5.361a.9.9 0 0 0-.213.477.375.375 0 0 0 .118.279.575.575 0 0 0 .41.118z" transform="translate(17.482 .091)"/><path id="Path_15" data-name="Path 15" class="cls-1" d="M433.321 214.891h3.879v5.918a17.076 17.076 0 0 1 1.656-.53 7.567 7.567 0 0 1 1.9-.214 6.635 6.635 0 0 1 2.479.414 4.088 4.088 0 0 1 1.632 1.126 4.534 4.534 0 0 1 .892 1.658 7.069 7.069 0 0 1 .277 2.005v8.757h-3.9v-8.492a2.06 2.06 0 0 0-.612-1.66 2.23 2.23 0 0 0-1.488-.517 5.475 5.475 0 0 0-1.634.229 9.663 9.663 0 0 0-1.233.464v9.978h-3.849z" transform="translate(24.576)"/></g></symbol><symbol id="cancel" viewBox="0 0 21.9 21.9"><path d="M14.1 11.3c-.2-.2-.2-.5 0-.7l7.5-7.5c.2-.2.3-.5.3-.7s-.1-.5-.3-.7L20.2.3c-.2-.2-.5-.3-.7-.3-.3 0-.5.1-.7.3l-7.5 7.5c-.2.2-.5.2-.7 0L3.1.3C2.9.1 2.6 0 2.4 0s-.5.1-.7.3L.3 1.7c-.2.2-.3.5-.3.7s.1.5.3.7l7.5 7.5c.2.2.2.5 0 .7L.3 18.8c-.2.2-.3.5-.3.7s.1.5.3.7l1.4 1.4c.2.2.5.3.7.3s.5-.1.7-.3l7.5-7.5c.2-.2.5-.2.7 0l7.5 7.5c.2.2.5.3.7.3s.5-.1.7-.3l1.4-1.4c.2-.2.3-.5.3-.7s-.1-.5-.3-.7l-7.5-7.5z" fill="#D80027"/></symbol><symbol id="down" viewBox="0 0 16.903 10.857"><path id="down" class="cls-1" d="M3.883 0L0 2.719 4.339 8.6 0 13.544l3.544 3.01L10.285 8.6l-.628-.833z" transform="rotate(88 8.275 8.57)"/></symbol><symbol id="face" viewBox="0 0 430.113 430.114"><path d="M158.081 83.3v59.218h-43.385v72.412h43.385v215.183h89.122V214.936h59.805s5.601-34.721 8.316-72.685H247.54V92.74c0-7.4 9.717-17.354 19.321-17.354h48.557V.001h-66.021C155.878-.004 158.081 72.48 158.081 83.3z" fill="#EB0A1E"/></symbol><symbol id="fechado" viewBox="0 0 40.778 58.066"><g id="preco-fechado_desktop-1" transform="translate(-429.558 -242.419)"><path id="Path_16" data-name="Path 16" class="cls-1" d="M464.276 289.311h-28.658a6.322 6.322 0 0 1-6.06-6.543V262.2a6.324 6.324 0 0 1 6.06-6.545h28.656a6.324 6.324 0 0 1 6.058 6.545v20.569a6.323 6.323 0 0 1-6.06 6.543m-28.66-30.3a3.075 3.075 0 0 0-2.946 3.183v20.569a3.076 3.076 0 0 0 2.946 3.185h28.658a3.075 3.075 0 0 0 2.946-3.185v-20.567a3.074 3.074 0 0 0-2.944-3.185h-28.656z" transform="translate(0 11.174)"/><path id="Path_17" data-name="Path 17" class="cls-1" d="M462.121 269.679a1.624 1.624 0 0 1-1.558-1.68v-8.642c0-7.486-5.638-13.572-12.567-13.572s-12.569 6.09-12.569 13.572V268a1.561 1.561 0 1 1-3.112 0v-8.642c0-9.335 7.035-16.937 15.684-16.937s15.684 7.6 15.684 16.937V268a1.631 1.631 0 0 1-1.563 1.68" transform="translate(1.952)"/><path id="Path_18" data-name="Path 18" class="cls-1" d="M456.1 267.509a1.619 1.619 0 0 1-1.556-1.678v-8.506c0-4.955-3.732-8.98-8.318-8.98s-8.314 4.028-8.314 8.98v8.506a1.56 1.56 0 1 1-3.112 0v-8.506c0-6.805 5.127-12.342 11.426-12.342s11.432 5.536 11.432 12.342v8.506a1.622 1.622 0 0 1-1.558 1.678" transform="translate(3.714 2.165)"/><path id="Path_19" data-name="Path 19" class="cls-1" d="M445.051 277.216h-.968v2.836h-.941v-2.836h-3.314V276.2h5.255a2.938 2.938 0 0 0 0-5.859h-2.915a3.99 3.99 0 0 1 0-7.956h.974v-2.776h.941v2.776h3.228v1.02h-5.143a2.939 2.939 0 0 0 0 5.861h2.915a3.848 3.848 0 0 1 3.682 3.976 3.893 3.893 0 0 1-3.715 3.976" transform="translate(6.321 14.511)"/><path id="Path_20" data-name="Path 20" class="cls-1" d="M444.358 280.359h-1.332v-2.836h-3.312v-1.435h5.45a2.729 2.729 0 0 0 0-5.442h-2.912a4.2 4.2 0 0 1 0-8.376h.774v-2.776h1.332v2.776h3.228v1.43h-5.334a2.728 2.728 0 0 0 0 5.44h2.912a4.05 4.05 0 0 1 3.879 4.188 4.1 4.1 0 0 1-3.908 4.188h-.774v2.838zm-.945-.419h.553v-2.84h1.165a3.7 3.7 0 0 0 3.522-3.772 3.64 3.64 0 0 0-3.489-3.766h-2.912a3.148 3.148 0 0 1 0-6.278h4.948v-.6h-3.226v-2.776h-.553v2.776h-1.165a3.78 3.78 0 0 0 0 7.537h2.912a3.148 3.148 0 0 1 0 6.278H440.1v.6h3.312z" transform="translate(6.24 14.415)"/></g></symbol><symbol id="ibama" viewBox="0 0 164.982 187.157"><path fill-rule="evenodd" clip-rule="evenodd" fill="#FFF" d="M25.166 136.151h114.651v19.878H25.166z"/><path fill="#00A651" d="M25.213 155.877H139.77v31.28H25.213z"/><path fill-rule="evenodd" clip-rule="evenodd" fill="#FFF" d="M29.728 173.963h-1.719l.748-2.323h.971v-11.794h2.073v11.697h4.438v-11.697h2.117v23.545h-2.117v-9.428h-4.438v9.428h-2.073z"/><clipPath id="ibama-b"><use xlink:href="#ibama-a" overflow="visible"/></clipPath><path clip-path="url(#ibama-b)" fill-rule="evenodd" clip-rule="evenodd" fill="#FFF" d="M50.229 171.668c0 2.318-.097 4.314-.271 5.986-.178 1.671-.625 3.139-1.326 4.34-.696 1.223-1.766 1.844-3.212 1.844-1.1 0-1.996-.374-2.671-1.098-.649-.746-1.147-1.695-1.474-2.895a22.681 22.681 0 0 1-.595-3.741 79.213 79.213 0 0 1 0-8.878c.099-1.297.299-2.545.595-3.713.327-1.174.825-2.119 1.474-2.848.675-.72 1.571-1.096 2.671-1.096 1.446 0 2.516.623 3.212 1.824.701 1.197 1.148 2.639 1.326 4.289.173 1.671.271 3.668.271 5.986m-4.81-9.756h-.054c-.823 0-1.418.503-1.818 1.498-.402.976-.649 2.146-.726 3.47a66.546 66.546 0 0 0-.15 4.788c0 1.817.054 3.393.15 4.761.101 1.35.352 2.521.774 3.521.4.994.999 1.519 1.824 1.519.795 0 1.367-.524 1.77-1.519.398-1 .647-2.198.746-3.567.099-1.373.148-2.941.148-4.714 0-1.823-.049-3.391-.122-4.738-.101-1.35-.348-2.522-.748-3.52-.397-.996-.999-1.499-1.794-1.499m12.441 20.729l-2.02-15.864-2.443 17.086-2.021-.425 3.494-22.222 1.794-1.946 1.373 12.871 1.471-10.949 1.821-1.944 2.971 24.164-1.923.426-1.895-17.134zm17.287-10.973c0 2.318-.099 4.314-.275 5.986-.174 1.671-.599 3.139-1.298 4.34-.722 1.223-1.794 1.844-3.24 1.844-1.098 0-1.971-.374-2.645-1.098-.67-.746-1.171-1.695-1.472-2.895a18.756 18.756 0 0 1-.6-3.741 81.004 81.004 0 0 1 0-8.878c.08-1.297.278-2.545.6-3.713.301-1.174.802-2.119 1.472-2.848.674-.72 1.547-1.096 2.645-1.096 1.446 0 2.518.623 3.24 1.824.699 1.197 1.124 2.639 1.298 4.289.176 1.671.275 3.668.275 5.986m-4.813-9.756h-.047c-.825 0-1.427.503-1.825 1.498-.399.976-.623 2.146-.722 3.47a84.348 84.348 0 0 0-.124 4.788c0 1.817.049 3.393.148 4.761.099 1.35.35 2.521.75 3.521.397.994 1.023 1.519 1.82 1.519.795 0 1.395-.524 1.796-1.519.37-1 .621-2.198.746-3.567.099-1.373.15-2.941.15-4.714 0-1.823-.051-3.391-.15-4.738-.099-1.35-.346-2.522-.72-3.52-.4-.996-.999-1.499-1.822-1.499m13.816 21.479h-6.457v-23.47h2.14v21.096h3.569zm10.826-11.723c0 2.318-.078 4.314-.25 5.986-.174 1.671-.623 3.139-1.323 4.34-.696 1.223-1.771 1.844-3.215 1.844-1.098 0-1.998-.374-2.673-1.098-.672-.746-1.145-1.695-1.47-2.895a22.68 22.68 0 0 1-.6-3.741 77.976 77.976 0 0 1-.124-4.437c0-1.648.049-3.142.124-4.441.102-1.297.301-2.545.6-3.713.325-1.174.798-2.119 1.47-2.848.675-.72 1.575-1.096 2.673-1.096 1.444 0 2.519.623 3.215 1.824.7 1.197 1.149 2.639 1.323 4.289.171 1.671.25 3.668.25 5.986m-4.788-9.756h-.054c-.818 0-1.445.503-1.819 1.498-.398.976-.649 2.146-.725 3.47-.097 1.296-.146 2.914-.146 4.788 0 1.817.049 3.393.146 4.761.105 1.35.351 2.521.752 3.521.396.994 1.021 1.519 1.846 1.519.798 0 1.369-.524 1.769-1.519.402-1 .651-2.198.75-3.567.097-1.373.146-2.941.146-4.714 0-1.823-.05-3.391-.125-4.738-.097-1.35-.346-2.522-.745-3.52-.401-.996-.998-1.499-1.795-1.499m14.24 19.654v.974l-.226.275c-.499.696-1.322 1.048-2.495 1.048-1.072 0-1.942-.352-2.617-1.074-.675-.747-1.173-1.695-1.472-2.866a18.22 18.22 0 0 1-.625-3.767 59.282 59.282 0 0 1-.148-4.39c0-1.719.049-3.219.127-4.514.072-1.275.247-2.521.548-3.69.324-1.196.795-2.146 1.473-2.896.669-.745 1.569-1.12 2.715-1.12.898 0 1.749.349 2.544 1.047l.353.322-.851 2.545-.223-.347c-.45-.799-1.05-1.201-1.823-1.201-.771 0-1.347.305-1.745.95-.423.623-.677 1.422-.822 2.422-.127.974-.198 2.142-.228 3.517.029.699.051 1.668.051 2.991a92.6 92.6 0 0 1-.051 3.363c.029 1.3.101 2.374.251 3.272.152.897.401 1.62.82 2.168.404.573.979.851 1.724.851.074 0 .273-.028.553-.077v-7.331h-1.698l.8-2.37h3.066v9.898zm6.409-15.288l-2.669 17.56-2.195-.426 3.867-22.271 1.869-1.993 3.894 24.265-2.023.426-2.743-17.561zm0 16.511l-2.046-2.965h4.042l-1.996 2.965zM117 159.921h3.912c1.074 0 1.919.369 2.596 1.069.647.727 1.146 1.65 1.446 2.796a16.81 16.81 0 0 1 .598 3.591c.103 1.244.146 2.671.146 4.291s-.043 3.038-.146 4.288a16.707 16.707 0 0 1-.598 3.591c-.326 1.126-.825 2.048-1.474 2.77-.673.701-1.545 1.074-2.617 1.074H117v-23.47zm2.118 21.149h1.57c.823 0 1.446-.324 1.87-1.022.423-.675.672-1.521.799-2.544.123-1.025.172-2.248.172-3.666v-4.841c0-1.346-.049-2.469-.172-3.417-.127-.945-.399-1.721-.799-2.318-.424-.598-1.021-.922-1.794-.922h-1.646v18.73zm18.156-9.402c0 2.318-.077 4.314-.251 5.986-.174 1.671-.623 3.139-1.319 4.34-.727 1.223-1.799 1.844-3.219 1.844-1.098 0-1.996-.374-2.669-1.098-.675-.746-1.149-1.695-1.47-2.895-.324-1.194-.5-2.441-.6-3.741a75.975 75.975 0 0 1-.127-4.437c0-1.648.05-3.142.127-4.441.1-1.297.275-2.545.6-3.713.32-1.174.795-2.119 1.47-2.848.673-.72 1.571-1.096 2.669-1.096 1.42 0 2.492.623 3.219 1.824.696 1.197 1.146 2.639 1.319 4.289.174 1.671.251 3.668.251 5.986m-4.789-9.756h-.05c-.822 0-1.448.503-1.849 1.498-.372.976-.62 2.146-.719 3.47a84.014 84.014 0 0 0-.127 4.788c0 1.817.052 3.393.148 4.761.101 1.35.351 2.521.752 3.521.396.994 1.021 1.519 1.844 1.519.771 0 1.373-.524 1.771-1.519.397-1 .649-2.198.75-3.567.099-1.373.152-2.941.152-4.714 0-1.823-.054-3.391-.152-4.738-.101-1.35-.327-2.522-.727-3.52-.397-.996-.996-1.499-1.793-1.499"/><path clip-path="url(#ibama-b)" fill-rule="evenodd" clip-rule="evenodd" fill="#034EA2" d="M24.99 26.96h114.603v109.167H24.99z"/><path clip-path="url(#ibama-b)" fill-rule="evenodd" clip-rule="evenodd" fill="#00A651" d="M42.725 69.335c25.737-9.48 43.47-33.769 38.109-43.997-8.855 1.796-16.113 6.664-24.17 9.981 2.969-10.752 2.969-19.706 1.871-28.41-8.578 6.409-21.723 11.773-26.015 30.973C25.241 29.156 16.659 21.247 0 21.999c3.791 10.776 15.314 34.016 31.973 37.36l1.598-3.344C21.773 50.381 13.167 35.813 6.734 26.109c15.838 4.395 22.897 17.188 26.186 18.883 3.767-1.547 6.287-14.015 9.255-16.861 2.967-2.816 4.566-7.131 11.923-13.042.146 13.567-4.192 20.651-6.287 30.952l2.667 1.547c5.113-7.159 15.938-9.706 23.895-14.566-.249 13.793-21.723 25.813-34.893 34.493l3.245 1.82z"/><path clip-path="url(#ibama-b)" fill-rule="evenodd" clip-rule="evenodd" fill="#CB5845" d="M126.151 78.587c8.876-9.977 16.188-16.934 31.074-21.448-8.554.298-5.387-14.517-12.046-18.133-8.554-3.041-11.747 3.917-16.484 11.474-3.518 5.436-10.8 9.353-14.618 2.42 1.276-7.657 4.443-14.191 3.818-22.973C116.3 12.396 93.153 1.822 78.86 0l-2.839 3.638c20.924 7.233 30.752 12.697 36.812 26.289-.324 8.782-2.546 15.714-4.463 23.273.645 3.614 4.139 6.655 7.306 6.955 5.39 2.422 8.874-.322 11.423-1.519 6.985-5.165 8.255-15.09 13.965-15.09 4.764 3.32 4.417 8.751 6.658 11.77-10.174 4.216-17.456 11.799-24.439 19.331l2.868 3.94z"/><path clip-path="url(#ibama-b)" fill-rule="evenodd" clip-rule="evenodd" fill="#FFF" d="M33.943 125.403c0-3.094-.075-5.191-.25-7.61.649.052 1.423.15 2.396.15.946 0 1.722-.099 2.368-.15-.174 2.419-.247 4.517-.247 7.61v3.716c0 3.065.073 5.187.247 7.606a19.235 19.235 0 0 0-2.368-.15c-.973 0-1.747.072-2.396.15.175-2.42.25-4.541.25-7.606v-3.716zm11.251 0c0-3.094-.077-5.19-.226-7.61.623.052 1.399.15 2.37.15 1.646 0 3.543-.15 5.187-.15 3.468 0 5.862 1.274 5.862 4.244 0 2.99-2.944 4.263-4.717 4.538v.051c1.75.073 5.192 1.296 5.192 4.611 0 3.917-3.292 5.488-6.734 5.488-1.526 0-2.796-.15-4.242-.15-1.048 0-2.295.072-2.918.15.149-2.421.226-4.541.226-7.606v-3.716zM51 119.368c-.845 0-1.042.023-1.416.075-.054 1.345-.127 2.866-.127 3.812 0 .974.051 1.872.051 2.796h1.296c1.646 0 3.294-1.146 3.294-3.497 0-1.74-.825-3.186-3.098-3.186m-.271 8.251c-.5 0-.898.027-1.221.027 0 .774-.051 1.521-.051 2.646 0 1.745.073 3.84.073 4.811.527.026.948.052 1.601.052 1.695 0 3.163-1.347 3.163-3.743 0-2.545-1.244-3.793-3.565-3.793m30.179 9.107c-.922-.078-1.745-.15-2.546-.15-.821 0-1.646.072-2.469.15a95.998 95.998 0 0 0-1.994-5.637c-1.246-.023-2.445-.052-3.693-.052-1.019 0-1.993.028-3.015.052a54.063 54.063 0 0 0-1.971 5.637c-.449-.078-.898-.15-1.347-.15-.473 0-.896.072-1.444.15 1.421-3.045 5.761-12.819 8.228-19.055.371.049.726.122 1.1.122.373 0 .721-.073 1.095-.122 2.472 6.235 5.861 14.567 8.056 19.055m-7.66-7.261c-.842-2.218-1.669-4.386-2.591-6.507a111.27 111.27 0 0 0-2.721 6.507h5.312zm14.692-5.211c-.621 4.167-.872 8.331-1.171 12.472-.449-.1-.922-.15-1.346-.15-.473 0-.899.051-1.377.15 1.227-6.313 2.175-12.622 2.994-18.933.403.077.774.149 1.175.149.371 0 .773-.072 1.171-.149 2.095 4.366 4.567 9.255 6.658 13.122 2.295-4.091 4.667-8.756 6.761-13.122.401.077.822.149 1.222.149.424 0 .823-.072 1.222-.149.75 6.311 1.774 15.069 2.496 18.933a18.795 18.795 0 0 0-4.741 0c-.199-3.818-.698-8.481-1.171-12.721h-.054c-2.168 4.239-4.311 8.455-6.384 12.721-.174-.024-.374-.078-.546-.078-.176 0-.374.054-.55.078-2.069-4.141-4.143-8.305-6.311-12.472h-.048zm41.427 12.472c-.924-.078-1.72-.15-2.542-.15-.8 0-1.647.072-2.445.15a126.075 126.075 0 0 0-2.02-5.637c-1.221-.023-2.443-.052-3.691-.052-1.024 0-1.996.028-3.019.052-.773 1.87-1.396 3.741-1.949 5.637-.47-.078-.894-.15-1.368-.15-.447 0-.898.072-1.446.15 1.42-3.045 5.762-12.819 8.253-19.055.376.049.727.122 1.101.122.373 0 .722-.073 1.096-.122 2.444 6.235 5.835 14.567 8.03 19.055m-7.655-7.261c-.849-2.218-1.646-4.386-2.572-6.507a84.55 84.55 0 0 0-2.716 6.507h5.288z"/><path clip-path="url(#ibama-b)" fill-rule="evenodd" clip-rule="evenodd" fill="#0095DA" d="M161.091 80.508c-6.755 5.512-13.192 9.201-22.866 11.35-16.09-1.249-16.439-15.041-28.337-13.791-8.378-.324-24.142 15.933-28.98 13.791-7.407 3.964-19.005-16.887-26.087-15.963-5.811-2.77-18.009 6.433-25.44 16.259l2.895 3.045c5.808-6.436 14.51-14.691 19.003-14.392 8.703-2.145 14.167 15.935 29.304 17.162 15.462-3.37 21.897-15.016 29.633-14.692 7.407-1.869 12.568 13.466 28.009 13.794 12.567-2.471 19.001-8.577 26.758-14.117l-3.892-2.446z"/><path clip-path="url(#ibama-b)" fill="#00A651" d="M25.127 144.622c0-2.166-.043-3.653-.172-5.358.471.041 1.049.098 1.752.098.982 0 2.094-.098 3.119-.098 2.007 0 3.054.291 3.718.794.896.677 1.323 1.47 1.323 2.611 0 2.956-2.307 4.135-5.49 4.135h-1.089c0 1.935.022 3.869.172 5.803-.471-.039-1.049-.097-1.753-.097-.703 0-1.281.058-1.752.097.129-1.702.172-3.19.172-5.356v-2.629zm4.102-4.255c-.344 0-.664 0-.898.02-.021 1.817-.043 3.634-.043 5.432 1.431 0 3.204-.349 3.204-2.841 0-1.972-1.047-2.611-2.263-2.611m11.319 6.09h-.194v.793c0 2.166.043 3.654.17 5.356-.468-.039-1.046-.097-1.749-.097-.705 0-1.282.058-1.753.097.129-1.702.172-3.19.172-5.356v-2.628c0-2.166-.043-3.653-.172-5.358.471.041 1.048.098 1.753.098.767 0 1.685-.098 3.14-.098 2.157 0 2.947.178 3.695.659.853.561 1.389 1.411 1.389 2.553 0 1.872-1.2 3.074-3.312 3.556 1.367 2.186 2.989 4.388 4.549 6.575-.64-.039-1.283-.097-1.921-.097-.64 0-1.304.058-1.944.097l-3.823-6.15zm-.129-6.09c-.043 1.758-.065 3.5-.065 5.258.17.02.323.039.471.039 1.878 0 2.903-.945 2.903-2.764.001-2.281-.979-2.533-3.309-2.533m16.875-1.353c4.529 0 8.094 2.243 8.094 6.903 0 3.827-3.395 6.94-8.157 6.94-4.508 0-8.139-2.09-8.139-6.923 0-3.809 3.246-6.92 8.202-6.92m-.063 1.104c-2.929 0-4.637 2.666-4.637 5.992 0 4.117 2.095 5.549 4.487 5.549 2.561 0 4.804-1.934 4.804-6.15 0-3.343-1.9-5.391-4.654-5.391m22.362 10.245c-.234.541-.406 1.103-.471 1.644-1.132.542-2.604.851-4.357.851-4.955 0-7.882-2.803-7.882-6.459 0-5.335 3.995-7.385 8.481-7.385 1.496 0 3.374.406 4.355.947a6.601 6.601 0 0 0-.489 1.973h-.299c-1.068-1.199-2.157-1.721-3.674-1.721-2.284 0-4.869 1.798-4.869 5.897 0 3.982 2.604 5.549 5.06 5.549 1.369 0 2.948-.583 3.868-1.451l.277.155zm9.74-11.349c4.527 0 8.094 2.243 8.094 6.903 0 3.827-3.396 6.94-8.158 6.94-4.508 0-8.138-2.09-8.138-6.923-.001-3.809 3.245-6.92 8.202-6.92m-.064 1.104c-2.927 0-4.635 2.666-4.635 5.992 0 4.117 2.093 5.549 4.486 5.549 2.562 0 4.805-1.934 4.805-6.15 0-3.343-1.903-5.391-4.656-5.391m10.893-.853c.32.059.641.097.961.097.319 0 .64-.038.96-.097 3.077 3.075 6.133 6.131 9.271 9.203 0-3.072 0-8.33-.15-9.203.32.059.641.097.961.097s.643-.038.96-.097c-.341 5.628-.341 8.2-.341 13.342-.299-.058-.576-.097-.875-.097s-.578.039-.834.097a224.572 224.572 0 0 0-9.334-9.396c-.043 1.447-.043 3.054-.043 4.506 0 3.092.064 4.175.129 4.891a6.084 6.084 0 0 0-1.003-.097c-.32 0-.662.039-.984.097.107-.563.431-5.548.431-9.495 0-1.74-.089-2.92-.109-3.848m26.72 0c.299.059.618.097.939.097.319 0 .64-.038.938-.097-1.41 3.036-4.187 8.915-5.852 13.342-.319-.039-.621-.097-.94-.097-.32 0-.641.058-.939.097-1.323-3.307-4.4-10.383-5.789-13.342.663.059 1.305.097 1.924.097.618 0 1.259-.038 1.878-.097.963 2.882 2.501 6.479 3.803 9.706 1.475-3.228 2.925-6.706 4.038-9.706m3.865 5.357c0-2.166-.043-3.653-.172-5.357 1.262.02 2.542.097 3.803.097 2.094 0 3.888-.038 4.463-.097-.04.234-.086.465-.086.812 0 .406.046.58.086.87-1.622-.097-4.186-.231-4.825-.231-.107 1.409-.107 2.803-.107 4.216a179.35 179.35 0 0 0 4.847-.157c-.083.447-.107.621-.107.869 0 .216.046.388.107.794a67.662 67.662 0 0 0-4.847-.174c0 .812-.021 1.644-.021 2.475 0 .812.021 1.646.064 2.418 1.601 0 3.246-.08 4.89-.252-.04.271-.086.467-.086.868 0 .408.046.6.086.834-.769-.02-1.772-.097-3.736-.097-3.48 0-4.059.058-4.529.097.129-1.702.172-3.19.172-5.356v-2.629z"/></symbol><symbol id="insta" viewBox="0 0 169.063 169.063"><g fill="#EB0A1E"><path d="M122.406 0H46.654C20.929 0 0 20.93 0 46.655v75.752c0 25.726 20.929 46.655 46.654 46.655h75.752c25.727 0 46.656-20.93 46.656-46.655V46.655C169.063 20.93 148.133 0 122.406 0zm31.657 122.407c0 17.455-14.201 31.655-31.656 31.655H46.654C29.2 154.063 15 139.862 15 122.407V46.655C15 29.201 29.2 15 46.654 15h75.752c17.455 0 31.656 14.201 31.656 31.655v75.752z"/><path d="M84.531 40.97c-24.021 0-43.563 19.542-43.563 43.563 0 24.02 19.542 43.561 43.563 43.561s43.563-19.541 43.563-43.561c0-24.021-19.542-43.563-43.563-43.563zm0 72.123c-15.749 0-28.563-12.812-28.563-28.561 0-15.75 12.813-28.563 28.563-28.563s28.563 12.813 28.563 28.563c0 15.749-12.814 28.561-28.563 28.561zM129.921 28.251c-2.89 0-5.729 1.17-7.77 3.22a11.053 11.053 0 0 0-3.23 7.78c0 2.891 1.18 5.73 3.23 7.78 2.04 2.04 4.88 3.22 7.77 3.22 2.9 0 5.73-1.18 7.78-3.22 2.05-2.05 3.22-4.89 3.22-7.78 0-2.9-1.17-5.74-3.22-7.78-2.04-2.05-4.88-3.22-7.78-3.22z"/></g></symbol><symbol id="left" viewBox="0 0 23.353 37.587"><path id="left" class="cls-1" d="M8.817 0L0 6.173l9.852 13.352L0 30.753l8.047 6.834 15.306-18.062-1.425-1.892z" transform="rotate(-180 11.677 18.794)"/></symbol><symbol id="phone" viewBox="0 0 20.604 20.605"><g id="telephone" transform="translate(-.006)"><g id="Group_103" data-name="Group 103" transform="translate(.006)"><path id="Path_7" data-name="Path 7" class="cls-1" d="M15.671 57.79a1.444 1.444 0 0 0-2.182 0c-.51.506-1.02 1.012-1.522 1.526a.3.3 0 0 1-.42.077c-.33-.18-.682-.326-1-.523a15.829 15.829 0 0 1-3.816-3.47 9.041 9.041 0 0 1-1.368-2.191.314.314 0 0 1 .077-.4c.51-.493 1.008-1 1.509-1.5a1.449 1.449 0 0 0 0-2.234l-1.2-1.2c-.4-.4-.819-.828-1.235-1.235a1.453 1.453 0 0 0-2.182 0c-.515.506-1.008 1.025-1.531 1.522a2.485 2.485 0 0 0-.78 1.676 7.1 7.1 0 0 0 .549 3.051 18.577 18.577 0 0 0 3.3 5.493 20.4 20.4 0 0 0 6.757 5.287 9.773 9.773 0 0 0 3.743 1.089 2.743 2.743 0 0 0 2.354-.9c.437-.489.93-.935 1.393-1.4a1.459 1.459 0 0 0 .009-2.221Q16.9 59.01 15.671 57.79z" transform="translate(-.006 -44.159)"/><path id="Path_8" data-name="Path 8" class="cls-1" d="M242.5 102.1l1.582-.27a7.1 7.1 0 0 0-6.005-5.83l-.223 1.591a5.489 5.489 0 0 1 4.646 4.509z" transform="translate(-227.656 -91.884)"/><path id="Path_9" data-name="Path 9" class="cls-1" d="M249.666 3.336A11.666 11.666 0 0 0 242.977 0l-.223 1.591a10.18 10.18 0 0 1 8.614 8.348l1.582-.27a11.751 11.751 0 0 0-3.284-6.333z" transform="translate(-232.346)"/></g></g></symbol><symbol id="pin" viewBox="0 0 522.462 522.462"><path d="M261.231 0C165.207 0 87.077 78.108 87.077 174.154c0 92.389 158.306 333.222 165.076 343.41 2.003 3.026 5.421 4.898 9.078 4.898s7.053-1.872 9.078-4.898c6.748-10.188 165.076-251.021 165.076-343.41C435.385 78.108 357.255 0 261.231 0zm0 250.346c-42.015 0-76.192-34.178-76.192-76.192s34.178-76.192 76.192-76.192 76.192 34.178 76.192 76.192-34.178 76.192-76.192 76.192z" fill="#FFF"/></symbol><symbol id="revisao" viewBox="0 0 100 62.073"><g id="desktop-revisao-expressa" transform="translate(-86.8 -678.8)"><path id="Path_21" data-name="Path 21" class="cls-1" d="M125.516 685.492v-2.944h4.12V678.8H113.43v3.748h4.12v2.944c-12.085 1.874-21.15 12.045-21.15 24.091 0 13.384 11.262 24.358 25 24.358s25-10.974 25-24.358c.275-12.045-8.79-22.217-20.876-24.091m-3.846 44.97c-11.811 0-21.425-9.369-21.425-20.879s9.614-20.879 21.425-20.879 21.425 9.369 21.425 20.879-9.614 20.879-21.425 20.879" transform="translate(16.77)"/><path id="Path_22" data-name="Path 22" class="cls-1" d="M89.673 689.677h13.185a1.339 1.339 0 1 0 0-2.677H89.673a1.452 1.452 0 0 0-1.373 1.338 1.742 1.742 0 0 0 1.373 1.338" transform="translate(2.62 13.749)"/><path id="Path_23" data-name="Path 23" class="cls-1" d="M104.929 691.738a1.454 1.454 0 0 0-1.373-1.338H88.173a1.339 1.339 0 1 0 0 2.677h15.382c1.1 0 1.373-.535 1.373-1.338" transform="translate(0 19.451)"/><path id="Path_24" data-name="Path 24" class="cls-1" d="M104.332 695.138a1.454 1.454 0 0 0-1.373-1.338H89.773a1.339 1.339 0 1 0 0 2.677h13.185c.824.268 1.373-.267 1.373-1.338" transform="translate(2.795 25.151)"/><path id="Path_25" data-name="Path 25" class="cls-1" d="M103.186 697.2H92.473a1.339 1.339 0 1 0 0 2.677h10.713a1.452 1.452 0 0 0 1.373-1.338 1.281 1.281 0 0 0-1.373-1.338" transform="translate(7.511 30.852)"/><path id="Path_26" data-name="Path 26" class="cls-1" d="M92.373 686.277h10.713a1.339 1.339 0 1 0 0-2.677H92.373a1.339 1.339 0 1 0 0 2.677" transform="translate(7.337 8.048)"/><path id="Path_27" data-name="Path 27" class="cls-1" d="M106.948 699.212V696.8a.824.824 0 0 0-1.648 0v2.409a.719.719 0 0 0 .824.8c.549.268.824-.268.824-.8" transform="translate(32.316 28.841)"/><path id="Path_28" data-name="Path 28" class="cls-1" d="M106.948 686.212V683.8a.824.824 0 0 0-1.648 0v2.409a.719.719 0 0 0 .824.8c.549.267.824-.268.824-.8" transform="translate(32.316 7.042)"/><path id="Path_29" data-name="Path 29" class="cls-1" d="M99.124 691.506h2.476a.8.8 0 1 0 0-1.606h-2.476a.719.719 0 0 0-.824.8.867.867 0 0 0 .824.8" transform="translate(20.089 18.612)"/><path id="Path_30" data-name="Path 30" class="cls-1" d="M112.473 691.506h2.747a.8.8 0 1 0 0-1.606h-2.747a.8.8 0 1 0 0 1.606" transform="translate(42.448 18.612)"/><path id="Path_31" data-name="Path 31" class="cls-1" d="M109.264 695.8a.967.967 0 0 1-.275-.8v-7.495a1.649 1.649 0 0 0-3.3 0v7.762c0 .268-.275.536-.275.8a2.353 2.353 0 0 0-.275 2.944 2.1 2.1 0 0 0 2.472 1.338 2.9 2.9 0 0 0 2.472-1.338 6.983 6.983 0 0 0-.824-3.212" transform="translate(31.374 11.905)"/><path id="Path_48" data-name="Path 48" class="cls-1" d="M0 0l6.266.075.059 4.858-6.266-.075z" transform="rotate(145.635 -42.687 364.169)"/><path id="Path_32" data-name="Path 32" class="cls-1" d="M110.431 696.432a1.17 1.17 0 0 1 0-1.338c.275-.535.824-.268 1.373 0s.275.8 0 1.338a.788.788 0 0 1-1.373 0" transform="translate(40.92 26.802)"/><path id="Path_33" data-name="Path 33" class="cls-1" d="M100.631 686.532a1.17 1.17 0 0 1 0-1.338c.275-.535.824-.268 1.373 0s.275.8 0 1.338a.788.788 0 0 1-1.373 0" transform="translate(23.801 10.202)"/><path id="Path_34" data-name="Path 34" class="cls-1" d="M100.762 695.126a1.253 1.253 0 0 1 1.373 0c.549.267.275.8 0 1.338s-.824.268-1.373 0a.749.749 0 0 1 0-1.338" transform="translate(23.67 27.038)"/><path id="Path_35" data-name="Path 35" class="cls-1" d="M110.5 685.226a1.253 1.253 0 0 1 1.373 0c.549.268.275.8 0 1.338s-.824.268-1.373 0-.275-1.071 0-1.338" transform="translate(40.849 10.438)"/><path id="Path_36" data-name="Path 36" class="cls-1" d="M100.242 687.266a.969.969 0 0 1 .549 1.338 1.013 1.013 0 0 1-1.373.536.969.969 0 0 1-.549-1.339 1.013 1.013 0 0 1 1.373-.535" transform="translate(20.893 14.019)"/><path id="Path_37" data-name="Path 37" class="cls-1" d="M113.142 692.766a.969.969 0 0 1 .549 1.338 1.013 1.013 0 0 1-1.373.535.969.969 0 0 1-.549-1.338 1.013 1.013 0 0 1 1.373-.535" transform="translate(43.428 23.241)"/><path id="Path_38" data-name="Path 38" class="cls-1" d="M104.591 684.1a.969.969 0 0 1-.549 1.338 1.013 1.013 0 0 1-1.373-.535.969.969 0 0 1 .549-1.338 1.013 1.013 0 0 1 1.373.535" transform="translate(27.531 7.815)"/><path id="Path_39" data-name="Path 39" class="cls-1" d="M109.891 697a.969.969 0 0 1-.549 1.338 1.013 1.013 0 0 1-1.373-.535.969.969 0 0 1 .549-1.338 1.013 1.013 0 0 1 1.373.535" transform="translate(36.79 29.445)"/><path id="Path_40" data-name="Path 40" class="cls-1" d="M104.591 684.1a.969.969 0 0 1-.549 1.338 1.013 1.013 0 0 1-1.373-.535.969.969 0 0 1 .549-1.338 1.013 1.013 0 0 1 1.373.535" transform="translate(27.531 7.815)"/><path id="Path_41" data-name="Path 41" class="cls-1" d="M109.891 697a.969.969 0 0 1-.549 1.338 1.013 1.013 0 0 1-1.373-.535.969.969 0 0 1 .549-1.338 1.013 1.013 0 0 1 1.373.535" transform="translate(36.79 29.445)"/><path id="Path_42" data-name="Path 42" class="cls-1" d="M109.72 684.8a1.013 1.013 0 0 1-1.373.535 1.156 1.156 0 0 1-.275-1.338 1.013 1.013 0 0 1 1.373-.535c.275.535.549 1.071.275 1.338" transform="translate(36.96 7.647)"/><path id="Path_43" data-name="Path 43" class="cls-1" d="M104.491 697.7a1.013 1.013 0 0 1-1.373.536.969.969 0 0 1-.549-1.339 1.013 1.013 0 0 1 1.373-.535c.549.535.824 1.071.549 1.338" transform="translate(27.357 29.278)"/><path id="Path_44" data-name="Path 44" class="cls-1" d="M113.142 689.14a1.013 1.013 0 0 1-1.373-.536.969.969 0 0 1 .549-1.338 1.013 1.013 0 0 1 1.373.535.969.969 0 0 1-.549 1.339" transform="translate(43.428 14.019)"/><path id="Path_45" data-name="Path 45" class="cls-1" d="M100.142 694.44a1.013 1.013 0 0 1-1.373-.535.969.969 0 0 1 .549-1.339 1.013 1.013 0 0 1 1.373.535.969.969 0 0 1-.549 1.338" transform="translate(20.719 22.906)"/><path id="Path_46" data-name="Path 46" class="cls-1" d="M109.141 691.024c0-.268.275-.8.549-.8a3.561 3.561 0 0 0 1.373-3.212 10.778 10.778 0 0 0-1.373-2.409v1.071c0 .535.275 1.338 0 1.606a6.04 6.04 0 0 1-1.373.8h-.549a6.032 6.032 0 0 0-1.373-.8c-.275-.268-.275-.268-.275-.535V684.6c-.549.536-.824 1.071-1.373 1.606a2.979 2.979 0 0 0 1.1 4.015c.275.268.549.268.549.8v4.818h2.747v-4.818" transform="translate(30.673 9.725)"/><path id="Path_47" data-name="Path 47" class="cls-1" d="M141.748 693.48l-3.571 4.015a1.886 1.886 0 0 1-2.747.268l-1.923-1.606c-.824-.8-1.1-1.874-.275-2.677l3.571-4.015a7.985 7.985 0 0 0-9.339 10.975l-14.558 17.667a3.055 3.055 0 0 0 .549 4.551 3.241 3.241 0 0 0 4.67-.535l14.558-17.667a7.735 7.735 0 0 0 7.966-2.677 7.2 7.2 0 0 0 1.1-8.3m-26.37 27.571c-.824 0-1.373-.268-1.373-1.071 0-.536.275-1.338 1.1-1.338.549 0 1.373.267 1.373 1.071a1.234 1.234 0 0 1-1.1 1.338" transform="translate(44.213 17.441)"/></g></symbol><symbol id="right" viewBox="0 0 24.65 38.379"><path id="left" class="cls-1" d="M8.817 0L0 6.173l9.852 13.352L0 30.753l8.047 6.834 15.306-18.062-1.425-1.892z" transform="rotate(-2 23.279 .408)"/></symbol><symbol id="shapes" viewBox="0 0 2500 2000"><g id="bg_toyolex" data-name="bg toyolex" class="cls-2" transform="translate(2597 -14171)"><g id="Group_210" data-name="Group 210" transform="translate(-319 -10)"><g id="Group_187" data-name="Group 187" class="cls-3" transform="translate(-2054 13707)"><rect id="Rectangle_132" data-name="Rectangle 132" class="cls-4" width="186" height="6" rx="1" transform="translate(-35 522)"/><rect id="Rectangle_133" data-name="Rectangle 133" class="cls-4" width="186" height="6" rx="1" transform="translate(180 595)"/><rect id="Rectangle_134" data-name="Rectangle 134" class="cls-4" width="186" height="6" rx="1" transform="translate(287 474)"/><rect id="Rectangle_135" data-name="Rectangle 135" class="cls-4" width="42" height="6" rx="1" transform="translate(1083 507)"/><rect id="Rectangle_136" data-name="Rectangle 136" class="cls-4" width="186" height="6" rx="1" transform="translate(913 691)"/><rect id="Rectangle_137" data-name="Rectangle 137" class="cls-4" width="97" height="6" rx="1" transform="translate(-4 381)"/><rect id="Rectangle_138" data-name="Rectangle 138" class="cls-4" width="38" height="6" rx="1" transform="translate(-226 639)"/><rect id="Rectangle_139" data-name="Rectangle 139" class="cls-4" width="38" height="6" rx="1" transform="translate(235 329)"/><rect id="Rectangle_140" data-name="Rectangle 140" class="cls-4" width="38" height="6" rx="1" transform="translate(-118 246)"/><rect id="Rectangle_141" data-name="Rectangle 141" class="cls-4" width="186" height="6" rx="1" transform="translate(511 519)"/></g><g id="Group_188" data-name="Group 188" class="cls-3" transform="translate(-2434 14972)"><rect id="Rectangle_142" data-name="Rectangle 142" class="cls-4" width="186" height="6" rx="1" transform="translate(-35 522)"/><rect id="Rectangle_143" data-name="Rectangle 143" class="cls-4" width="186" height="6" rx="1" transform="translate(180 595)"/><rect id="Rectangle_144" data-name="Rectangle 144" class="cls-4" width="186" height="6" rx="1" transform="translate(287 474)"/><rect id="Rectangle_145" data-name="Rectangle 145" class="cls-4" width="42" height="6" rx="1" transform="translate(1083 507)"/><rect id="Rectangle_146" data-name="Rectangle 146" class="cls-4" width="186" height="6" rx="1" transform="translate(913 691)"/><rect id="Rectangle_147" data-name="Rectangle 147" class="cls-4" width="97" height="6" rx="1" transform="translate(-4 381)"/><rect id="Rectangle_148" data-name="Rectangle 148" class="cls-4" width="38" height="6" rx="1" transform="translate(-226 639)"/><rect id="Rectangle_149" data-name="Rectangle 149" class="cls-4" width="38" height="6" rx="1" transform="translate(235 329)"/><rect id="Rectangle_150" data-name="Rectangle 150" class="cls-4" width="38" height="6" rx="1" transform="translate(-118 246)"/><rect id="Rectangle_151" data-name="Rectangle 151" class="cls-4" width="186" height="6" rx="1" transform="translate(511 519)"/></g><g id="Group_189" data-name="Group 189" class="cls-3" transform="translate(-1216 14401)"><rect id="Rectangle_152" data-name="Rectangle 152" class="cls-4" width="186" height="6" rx="1" transform="translate(-256 821)"/><rect id="Rectangle_153" data-name="Rectangle 153" class="cls-4" width="186" height="6" rx="1" transform="translate(180 595)"/><rect id="Rectangle_154" data-name="Rectangle 154" class="cls-4" width="186" height="6" rx="1" transform="translate(161 800)"/><rect id="Rectangle_155" data-name="Rectangle 155" class="cls-4" width="42" height="6" rx="1" transform="translate(1083 507)"/><rect id="Rectangle_156" data-name="Rectangle 156" class="cls-4" width="186" height="6" rx="1" transform="translate(913 691)"/><rect id="Rectangle_157" data-name="Rectangle 157" class="cls-4" width="97" height="6" rx="1" transform="translate(-4 381)"/><rect id="Rectangle_158" data-name="Rectangle 158" class="cls-4" width="38" height="6" rx="1" transform="translate(-137 641)"/><rect id="Rectangle_159" data-name="Rectangle 159" class="cls-4" width="38" height="6" rx="1" transform="translate(235 329)"/><rect id="Rectangle_160" data-name="Rectangle 160" class="cls-4" width="38" height="6" rx="1" transform="translate(-118 246)"/><rect id="Rectangle_161" data-name="Rectangle 161" class="cls-4" width="91" height="6" rx="1" transform="translate(752 504)"/></g><g id="Group_190" data-name="Group 190" class="cls-3" transform="rotate(180 1095.505 8266.001)"><rect id="Rectangle_162" data-name="Rectangle 162" class="cls-4" width="186" height="6" rx="1" transform="translate(-35 522)"/><rect id="Rectangle_163" data-name="Rectangle 163" class="cls-4" width="186" height="6" rx="1" transform="translate(180 595)"/><rect id="Rectangle_164" data-name="Rectangle 164" class="cls-4" width="186" height="6" rx="1" transform="translate(287 474)"/><rect id="Rectangle_165" data-name="Rectangle 165" class="cls-4" width="42" height="6" rx="1" transform="translate(1083 507)"/><rect id="Rectangle_166" data-name="Rectangle 166" class="cls-4" width="186" height="6" rx="1" transform="translate(913 691)"/><rect id="Rectangle_167" data-name="Rectangle 167" class="cls-4" width="97" height="6" rx="1" transform="translate(-4 381)"/><rect id="Rectangle_168" data-name="Rectangle 168" class="cls-4" width="38" height="6" rx="1" transform="translate(-226 639)"/><rect id="Rectangle_169" data-name="Rectangle 169" class="cls-4" width="38" height="6" rx="1" transform="translate(235 329)"/><rect id="Rectangle_170" data-name="Rectangle 170" class="cls-4" width="38" height="6" rx="1" transform="translate(-118 246)"/><rect id="Rectangle_171" data-name="Rectangle 171" class="cls-4" width="186" height="6" rx="1" transform="translate(511 519)"/></g><g id="Group_195" data-name="Group 195" class="cls-5" transform="translate(-2111 14029)"><g id="Group_191" data-name="Group 191" transform="translate(4)"><rect id="Rectangle_172" data-name="Rectangle 172" class="cls-4" width="186" height="6" rx="1" transform="translate(201 570)"/><rect id="Rectangle_173" data-name="Rectangle 173" class="cls-4" width="120" height="6" rx="1" transform="translate(317 416)"/><rect id="Rectangle_174" data-name="Rectangle 174" class="cls-4" width="120" height="6" rx="1" transform="translate(701 378)"/><rect id="Rectangle_175" data-name="Rectangle 175" class="cls-4" width="42" height="6" rx="1" transform="translate(1083 507)"/><rect id="Rectangle_176" data-name="Rectangle 176" class="cls-4" width="186" height="6" rx="1" transform="translate(1940 347)"/><rect id="Rectangle_177" data-name="Rectangle 177" class="cls-6" width="97" height="6" rx="1" transform="translate(-4 381)"/><rect id="Rectangle_178" data-name="Rectangle 178" class="cls-4" width="38" height="6" rx="1" transform="translate(-4 697)"/><rect id="Rectangle_179" data-name="Rectangle 179" class="cls-4" width="38" height="6" rx="1" transform="translate(-148 620)"/><rect id="Rectangle_180" data-name="Rectangle 180" class="cls-4" width="186" height="6" rx="1" transform="translate(1754 15)"/><rect id="Rectangle_181" data-name="Rectangle 181" class="cls-4" width="186" height="6" rx="1" transform="translate(2075 -61)"/></g><g id="Group_192" data-name="Group 192" class="cls-7" transform="translate(74 184)"><rect id="Rectangle_182" data-name="Rectangle 182" class="cls-8" width="186" height="6" rx="1" transform="translate(72 563)"/><rect id="Rectangle_183" data-name="Rectangle 183" class="cls-8" width="186" height="6" rx="1" transform="translate(410 425)"/><rect id="Rectangle_184" data-name="Rectangle 184" class="cls-8" width="42" height="6" rx="1" transform="translate(1083 507)"/><rect id="Rectangle_185" data-name="Rectangle 185" class="cls-8" width="186" height="6" rx="1" transform="translate(913 691)"/><rect id="Rectangle_186" data-name="Rectangle 186" class="cls-8" width="97" height="6" rx="1" transform="translate(-33 317)"/><rect id="Rectangle_187" data-name="Rectangle 187" class="cls-9" width="38" height="6" rx="1" transform="translate(-4 697)"/><rect id="Rectangle_188" data-name="Rectangle 188" class="cls-8" width="186" height="6" rx="1" transform="translate(511 519)"/><rect id="Rectangle_326" data-name="Rectangle 326" class="cls-8" width="94" height="6" rx="1" transform="translate(391 653)"/></g><g id="Group_193" data-name="Group 193" class="cls-10" transform="translate(1289 340)"><rect id="Rectangle_189" data-name="Rectangle 189" class="cls-4" width="186" height="6" rx="1" transform="translate(15 513)"/><rect id="Rectangle_190" data-name="Rectangle 190" class="cls-4" width="186" height="6" rx="1" transform="translate(180 595)"/><rect id="Rectangle_191" data-name="Rectangle 191" class="cls-11" width="186" height="6" rx="1" transform="translate(256 387)"/><rect id="Rectangle_192" data-name="Rectangle 192" class="cls-11" width="186" height="6" rx="1" transform="translate(729 381)"/><rect id="Rectangle_193" data-name="Rectangle 193" class="cls-11" width="186" height="6" rx="1" transform="translate(886 214)"/><rect id="Rectangle_194" data-name="Rectangle 194" class="cls-11" width="57" height="6" rx="1" transform="translate(944 644)"/><rect id="Rectangle_195" data-name="Rectangle 195" class="cls-4" width="97" height="6" rx="1" transform="translate(93 220)"/><rect id="Rectangle_196" data-name="Rectangle 196" class="cls-4" width="38" height="6" rx="1" transform="translate(-4 697)"/><rect id="Rectangle_197" data-name="Rectangle 197" class="cls-12" width="38" height="6" rx="1" transform="translate(-296 697)"/><rect id="Rectangle_198" data-name="Rectangle 198" class="cls-13" width="38" height="6" rx="1" transform="translate(-975 589)"/><rect id="Rectangle_199" data-name="Rectangle 199" class="cls-14" width="99" height="6" rx="1" transform="translate(-1197 650)"/><rect id="Rectangle_200" data-name="Rectangle 200" class="cls-4" width="98" height="6" rx="1" transform="translate(442 284)"/></g><g id="Group_194" data-name="Group 194" class="cls-15" transform="translate(835 145)"><rect id="Rectangle_201" data-name="Rectangle 201" class="cls-4" width="186" height="6" rx="1" transform="translate(-297 841)"/><rect id="Rectangle_202" data-name="Rectangle 202" class="cls-4" width="186" height="6" rx="1" transform="translate(180 595)"/><rect id="Rectangle_203" data-name="Rectangle 203" class="cls-4" width="186" height="6" rx="1" transform="translate(287 474)"/><rect id="Rectangle_204" data-name="Rectangle 204" class="cls-4" width="186" height="6" rx="1" transform="translate(-519 1003)"/><rect id="Rectangle_205" data-name="Rectangle 205" class="cls-16" width="186" height="6" rx="1" transform="translate(-1046 670)"/><rect id="Rectangle_206" data-name="Rectangle 206" class="cls-4" width="186" height="6" rx="1" transform="translate(-1071 997)"/><rect id="Rectangle_207" data-name="Rectangle 207" class="cls-4" width="169" height="6" rx="1" transform="translate(913 691)"/><rect id="Rectangle_208" data-name="Rectangle 208" class="cls-4" width="97" height="6" rx="1" transform="translate(-4 381)"/><rect id="Rectangle_209" data-name="Rectangle 209" class="cls-4" width="38" height="6" rx="1" transform="translate(-4 697)"/><rect id="Rectangle_210" data-name="Rectangle 210" class="cls-4" width="186" height="6" rx="1" transform="translate(511 519)"/></g></g><g id="Group_200" data-name="Group 200" class="cls-5" transform="translate(-2491 15294)"><g id="Group_196" data-name="Group 196" transform="translate(4)"><rect id="Rectangle_211" data-name="Rectangle 211" class="cls-4" width="186" height="6" rx="1" transform="translate(201 570)"/><rect id="Rectangle_212" data-name="Rectangle 212" class="cls-4" width="120" height="6" rx="1" transform="translate(317 416)"/><rect id="Rectangle_213" data-name="Rectangle 213" class="cls-4" width="120" height="6" rx="1" transform="translate(701 378)"/><rect id="Rectangle_214" data-name="Rectangle 214" class="cls-4" width="42" height="6" rx="1" transform="translate(1083 507)"/><rect id="Rectangle_215" data-name="Rectangle 215" class="cls-4" width="186" height="6" rx="1" transform="translate(1940 347)"/><rect id="Rectangle_216" data-name="Rectangle 216" class="cls-6" width="97" height="6" rx="1" transform="translate(-4 381)"/><rect id="Rectangle_217" data-name="Rectangle 217" class="cls-4" width="38" height="6" rx="1" transform="translate(-4 697)"/><rect id="Rectangle_218" data-name="Rectangle 218" class="cls-4" width="38" height="6" rx="1" transform="translate(-148 620)"/><rect id="Rectangle_219" data-name="Rectangle 219" class="cls-4" width="186" height="6" rx="1" transform="translate(1754 15)"/><rect id="Rectangle_220" data-name="Rectangle 220" class="cls-4" width="186" height="6" rx="1" transform="translate(2075 -61)"/></g><g id="Group_197" data-name="Group 197" class="cls-7" transform="translate(74 184)"><rect id="Rectangle_221" data-name="Rectangle 221" class="cls-8" width="186" height="6" rx="1" transform="translate(72 563)"/><rect id="Rectangle_222" data-name="Rectangle 222" class="cls-8" width="186" height="6" rx="1" transform="translate(410 425)"/><rect id="Rectangle_223" data-name="Rectangle 223" class="cls-8" width="42" height="6" rx="1" transform="translate(1083 507)"/><rect id="Rectangle_224" data-name="Rectangle 224" class="cls-8" width="186" height="6" rx="1" transform="translate(913 691)"/><rect id="Rectangle_225" data-name="Rectangle 225" class="cls-8" width="97" height="6" rx="1" transform="translate(-33 317)"/><rect id="Rectangle_226" data-name="Rectangle 226" class="cls-9" width="38" height="6" rx="1" transform="translate(-4 697)"/><rect id="Rectangle_227" data-name="Rectangle 227" class="cls-8" width="186" height="6" rx="1" transform="translate(511 519)"/></g><g id="Group_198" data-name="Group 198" class="cls-10" transform="translate(1289 340)"><rect id="Rectangle_228" data-name="Rectangle 228" class="cls-4" width="186" height="6" rx="1" transform="translate(15 513)"/><rect id="Rectangle_229" data-name="Rectangle 229" class="cls-4" width="186" height="6" rx="1" transform="translate(180 595)"/><rect id="Rectangle_230" data-name="Rectangle 230" class="cls-11" width="186" height="6" rx="1" transform="translate(256 387)"/><rect id="Rectangle_231" data-name="Rectangle 231" class="cls-11" width="186" height="6" rx="1" transform="translate(729 381)"/><rect id="Rectangle_232" data-name="Rectangle 232" class="cls-11" width="186" height="6" rx="1" transform="translate(886 214)"/><rect id="Rectangle_233" data-name="Rectangle 233" class="cls-11" width="57" height="6" rx="1" transform="translate(944 644)"/><rect id="Rectangle_234" data-name="Rectangle 234" class="cls-4" width="97" height="6" rx="1" transform="translate(93 220)"/><rect id="Rectangle_235" data-name="Rectangle 235" class="cls-4" width="38" height="6" rx="1" transform="translate(-4 697)"/><rect id="Rectangle_236" data-name="Rectangle 236" class="cls-12" width="38" height="6" rx="1" transform="translate(-296 697)"/><rect id="Rectangle_237" data-name="Rectangle 237" class="cls-13" width="38" height="6" rx="1" transform="translate(-975 589)"/><rect id="Rectangle_238" data-name="Rectangle 238" class="cls-14" width="99" height="6" rx="1" transform="translate(-1197 650)"/><rect id="Rectangle_239" data-name="Rectangle 239" class="cls-4" width="98" height="6" rx="1" transform="translate(442 284)"/></g><g id="Group_199" data-name="Group 199" class="cls-15" transform="translate(835 145)"><rect id="Rectangle_240" data-name="Rectangle 240" class="cls-4" width="186" height="6" rx="1" transform="translate(-297 841)"/><rect id="Rectangle_241" data-name="Rectangle 241" class="cls-4" width="186" height="6" rx="1" transform="translate(180 595)"/><rect id="Rectangle_242" data-name="Rectangle 242" class="cls-4" width="186" height="6" rx="1" transform="translate(287 474)"/><rect id="Rectangle_243" data-name="Rectangle 243" class="cls-4" width="186" height="6" rx="1" transform="translate(-519 1003)"/><rect id="Rectangle_244" data-name="Rectangle 244" class="cls-16" width="186" height="6" rx="1" transform="translate(-1046 670)"/><rect id="Rectangle_245" data-name="Rectangle 245" class="cls-4" width="186" height="6" rx="1" transform="translate(-1071 997)"/><rect id="Rectangle_246" data-name="Rectangle 246" class="cls-4" width="169" height="6" rx="1" transform="translate(913 691)"/><rect id="Rectangle_247" data-name="Rectangle 247" class="cls-4" width="97" height="6" rx="1" transform="translate(-4 381)"/><rect id="Rectangle_248" data-name="Rectangle 248" class="cls-4" width="38" height="6" rx="1" transform="translate(-4 697)"/><rect id="Rectangle_249" data-name="Rectangle 249" class="cls-4" width="186" height="6" rx="1" transform="translate(511 519)"/></g></g><g id="Group_205" data-name="Group 205" class="cls-5" transform="rotate(180 1124.005 8105.001)"><g id="Group_201" data-name="Group 201" transform="translate(4)"><rect id="Rectangle_250" data-name="Rectangle 250" class="cls-4" width="186" height="6" rx="1" transform="translate(201 570)"/><rect id="Rectangle_251" data-name="Rectangle 251" class="cls-4" width="120" height="6" rx="1" transform="translate(317 416)"/><rect id="Rectangle_252" data-name="Rectangle 252" class="cls-4" width="120" height="6" rx="1" transform="translate(701 378)"/><rect id="Rectangle_253" data-name="Rectangle 253" class="cls-4" width="42" height="6" rx="1" transform="translate(1083 507)"/><rect id="Rectangle_254" data-name="Rectangle 254" class="cls-4" width="186" height="6" rx="1" transform="translate(1940 347)"/><rect id="Rectangle_255" data-name="Rectangle 255" class="cls-6" width="97" height="6" rx="1" transform="translate(-4 381)"/><rect id="Rectangle_256" data-name="Rectangle 256" class="cls-4" width="38" height="6" rx="1" transform="translate(-4 697)"/><rect id="Rectangle_257" data-name="Rectangle 257" class="cls-4" width="38" height="6" rx="1" transform="translate(-148 620)"/><rect id="Rectangle_258" data-name="Rectangle 258" class="cls-4" width="186" height="6" rx="1" transform="translate(1754 15)"/><rect id="Rectangle_259" data-name="Rectangle 259" class="cls-4" width="186" height="6" rx="1" transform="translate(2075 -61)"/></g><g id="Group_202" data-name="Group 202" class="cls-7" transform="translate(74 184)"><rect id="Rectangle_260" data-name="Rectangle 260" class="cls-8" width="186" height="6" rx="1" transform="translate(72 563)"/><rect id="Rectangle_261" data-name="Rectangle 261" class="cls-8" width="186" height="6" rx="1" transform="translate(410 425)"/><rect id="Rectangle_262" data-name="Rectangle 262" class="cls-8" width="42" height="6" rx="1" transform="translate(1083 507)"/><rect id="Rectangle_263" data-name="Rectangle 263" class="cls-8" width="186" height="6" rx="1" transform="translate(913 691)"/><rect id="Rectangle_264" data-name="Rectangle 264" class="cls-8" width="97" height="6" rx="1" transform="translate(-33 317)"/><rect id="Rectangle_265" data-name="Rectangle 265" class="cls-9" width="38" height="6" rx="1" transform="translate(-4 697)"/><rect id="Rectangle_266" data-name="Rectangle 266" class="cls-8" width="186" height="6" rx="1" transform="translate(511 519)"/></g><g id="Group_203" data-name="Group 203" class="cls-10" transform="translate(1289 340)"><rect id="Rectangle_267" data-name="Rectangle 267" class="cls-4" width="186" height="6" rx="1" transform="translate(15 513)"/><rect id="Rectangle_268" data-name="Rectangle 268" class="cls-4" width="186" height="6" rx="1" transform="translate(180 595)"/><rect id="Rectangle_269" data-name="Rectangle 269" class="cls-11" width="186" height="6" rx="1" transform="translate(256 387)"/><rect id="Rectangle_270" data-name="Rectangle 270" class="cls-11" width="186" height="6" rx="1" transform="translate(729 381)"/><rect id="Rectangle_271" data-name="Rectangle 271" class="cls-11" width="186" height="6" rx="1" transform="translate(886 214)"/><rect id="Rectangle_272" data-name="Rectangle 272" class="cls-11" width="57" height="6" rx="1" transform="translate(944 644)"/><rect id="Rectangle_273" data-name="Rectangle 273" class="cls-4" width="97" height="6" rx="1" transform="translate(93 220)"/><rect id="Rectangle_274" data-name="Rectangle 274" class="cls-4" width="38" height="6" rx="1" transform="translate(-4 697)"/><rect id="Rectangle_275" data-name="Rectangle 275" class="cls-12" width="38" height="6" rx="1" transform="translate(-296 697)"/><rect id="Rectangle_276" data-name="Rectangle 276" class="cls-13" width="38" height="6" rx="1" transform="translate(-975 589)"/><rect id="Rectangle_277" data-name="Rectangle 277" class="cls-14" width="99" height="6" rx="1" transform="translate(-1197 650)"/><rect id="Rectangle_278" data-name="Rectangle 278" class="cls-4" width="98" height="6" rx="1" transform="translate(442 284)"/></g><g id="Group_204" data-name="Group 204" class="cls-15" transform="translate(835 145)"><rect id="Rectangle_279" data-name="Rectangle 279" class="cls-4" width="186" height="6" rx="1" transform="translate(-297 841)"/><rect id="Rectangle_280" data-name="Rectangle 280" class="cls-4" width="186" height="6" rx="1" transform="translate(180 595)"/><rect id="Rectangle_281" data-name="Rectangle 281" class="cls-4" width="186" height="6" rx="1" transform="translate(287 474)"/><rect id="Rectangle_282" data-name="Rectangle 282" class="cls-4" width="186" height="6" rx="1" transform="translate(-519 1003)"/><rect id="Rectangle_283" data-name="Rectangle 283" class="cls-16" width="186" height="6" rx="1" transform="translate(-1046 670)"/><rect id="Rectangle_284" data-name="Rectangle 284" class="cls-4" width="186" height="6" rx="1" transform="translate(-1071 997)"/><rect id="Rectangle_285" data-name="Rectangle 285" class="cls-4" width="169" height="6" rx="1" transform="translate(913 691)"/><rect id="Rectangle_286" data-name="Rectangle 286" class="cls-4" width="97" height="6" rx="1" transform="translate(-4 381)"/><rect id="Rectangle_287" data-name="Rectangle 287" class="cls-4" width="38" height="6" rx="1" transform="translate(-4 697)"/><rect id="Rectangle_288" data-name="Rectangle 288" class="cls-4" width="186" height="6" rx="1" transform="translate(511 519)"/></g></g><g id="Group_206" data-name="Group 206" class="cls-17" transform="translate(-762 13677)"><rect id="Rectangle_289" data-name="Rectangle 289" class="cls-4" width="186" height="6" rx="1" transform="translate(15 513)"/><rect id="Rectangle_290" data-name="Rectangle 290" class="cls-4" width="186" height="6" rx="1" transform="translate(745 491)"/><rect id="Rectangle_291" data-name="Rectangle 291" class="cls-4" width="186" height="6" rx="1" transform="translate(26 727)"/><rect id="Rectangle_292" data-name="Rectangle 292" class="cls-4" width="186" height="6" rx="1" transform="translate(-936 327)"/><rect id="Rectangle_293" data-name="Rectangle 293" class="cls-4" width="186" height="6" rx="1" transform="translate(180 595)"/><rect id="Rectangle_294" data-name="Rectangle 294" class="cls-4" width="186" height="6" rx="1" transform="translate(245 806)"/><rect id="Rectangle_295" data-name="Rectangle 295" class="cls-4" width="186" height="6" rx="1" transform="translate(-565 425)"/><rect id="Rectangle_296" data-name="Rectangle 296" class="cls-4" width="97" height="6" rx="1" transform="translate(-4 381)"/><rect id="Rectangle_297" data-name="Rectangle 297" class="cls-4" width="60" height="6" rx="1" transform="translate(511 519)"/></g><g id="Group_207" data-name="Group 207" class="cls-17" transform="translate(-1142 14942)"><rect id="Rectangle_298" data-name="Rectangle 298" class="cls-4" width="186" height="6" rx="1" transform="translate(15 513)"/><rect id="Rectangle_299" data-name="Rectangle 299" class="cls-4" width="186" height="6" rx="1" transform="translate(745 491)"/><rect id="Rectangle_300" data-name="Rectangle 300" class="cls-4" width="186" height="6" rx="1" transform="translate(26 727)"/><rect id="Rectangle_301" data-name="Rectangle 301" class="cls-4" width="186" height="6" rx="1" transform="translate(-936 327)"/><rect id="Rectangle_302" data-name="Rectangle 302" class="cls-4" width="186" height="6" rx="1" transform="translate(180 595)"/><rect id="Rectangle_303" data-name="Rectangle 303" class="cls-4" width="186" height="6" rx="1" transform="translate(245 806)"/><rect id="Rectangle_304" data-name="Rectangle 304" class="cls-18" width="186" height="6" rx="1" transform="translate(-565 425)"/><rect id="Rectangle_305" data-name="Rectangle 305" class="cls-4" width="97" height="6" rx="1" transform="translate(-4 381)"/><rect id="Rectangle_306" data-name="Rectangle 306" class="cls-4" width="60" height="6" rx="1" transform="translate(511 519)"/></g><g id="Group_208" data-name="Group 208" class="cls-17" transform="translate(76 14371)"><rect id="Rectangle_307" data-name="Rectangle 307" class="cls-4" width="186" height="6" rx="1" transform="translate(15 513)"/><rect id="Rectangle_308" data-name="Rectangle 308" class="cls-4" width="186" height="6" rx="1" transform="translate(745 491)"/><rect id="Rectangle_309" data-name="Rectangle 309" class="cls-4" width="186" height="6" rx="1" transform="translate(-16 749)"/><rect id="Rectangle_310" data-name="Rectangle 310" class="cls-4" width="186" height="6" rx="1" transform="translate(-713 769)"/><rect id="Rectangle_311" data-name="Rectangle 311" class="cls-4" width="186" height="6" rx="1" transform="translate(180 595)"/><rect id="Rectangle_312" data-name="Rectangle 312" class="cls-4" width="186" height="6" rx="1" transform="translate(245 806)"/><rect id="Rectangle_313" data-name="Rectangle 313" class="cls-4" width="113" height="6" rx="1" transform="translate(-275 353)"/><rect id="Rectangle_314" data-name="Rectangle 314" class="cls-4" width="97" height="6" rx="1" transform="translate(-4 381)"/><rect id="Rectangle_315" data-name="Rectangle 315" class="cls-4" width="60" height="6" rx="1" transform="translate(511 519)"/></g><g id="Group_209" data-name="Group 209" class="cls-17" transform="rotate(180 449.505 8281.001)"><rect id="Rectangle_316" data-name="Rectangle 316" class="cls-4" width="186" height="6" rx="1" transform="translate(15 513)"/><rect id="Rectangle_317" data-name="Rectangle 317" class="cls-4" width="186" height="6" rx="1" transform="translate(745 491)"/><rect id="Rectangle_318" data-name="Rectangle 318" class="cls-4" width="186" height="6" rx="1" transform="translate(26 727)"/><rect id="Rectangle_319" data-name="Rectangle 319" class="cls-4" width="186" height="6" rx="1" transform="translate(-936 327)"/><rect id="Rectangle_320" data-name="Rectangle 320" class="cls-4" width="186" height="6" rx="1" transform="translate(180 595)"/><rect id="Rectangle_321" data-name="Rectangle 321" class="cls-4" width="186" height="6" rx="1" transform="translate(245 806)"/><rect id="Rectangle_322" data-name="Rectangle 322" class="cls-4" width="186" height="6" rx="1" transform="translate(-565 425)"/><rect id="Rectangle_323" data-name="Rectangle 323" class="cls-4" width="97" height="6" rx="1" transform="translate(-4 381)"/><rect id="Rectangle_324" data-name="Rectangle 324" class="cls-4" width="60" height="6" rx="1" transform="translate(511 519)"/></g></g></g></symbol></svg>